<?xml version="1.0" encoding="utf-8" standalone="no"?>
<!DOCTYPE svg PUBLIC "-//W3C//DTD SVG 1.1//EN"
  "http://www.w3.org/Graphics/SVG/1.1/DTD/svg11.dtd">
<svg xmlns:xlink="http://www.w3.org/1999/xlink" width="258.284548pt" height="333.234779pt" viewBox="0 0 258.284548 333.234779" xmlns="http://www.w3.org/2000/svg" version="1.1">
 <metadata>
  <rdf:RDF xmlns:dc="http://purl.org/dc/elements/1.1/" xmlns:cc="http://creativecommons.org/ns#" xmlns:rdf="http://www.w3.org/1999/02/22-rdf-syntax-ns#">
   <cc:Work>
    <dc:type rdf:resource="http://purl.org/dc/dcmitype/StillImage"/>
    <dc:date>2026-07-02T10:34:13.963503</dc:date>
    <dc:format>image/svg+xml</dc:format>
    <dc:creator>
     <cc:Agent>
      <dc:title>Matplotlib v3.10.8, https://matplotlib.org/</dc:title>
     </cc:Agent>
    </dc:creator>
   </cc:Work>
  </rdf:RDF>
 </metadata>
 <defs>
  <style type="text/css">*{stroke-linejoin: round; stroke-linecap: butt}</style>
 </defs>
 <g id="figure_1">
  <g id="patch_1">
   <path d="M 0 333.234779 
L 258.284548 333.234779 
L 258.284548 0 
L 0 0 
z
" style="fill: #ffffff"/>
  </g>
  <g id="axes_1">
   <g id="patch_2">
    <path d="M 52.814063 95.95169 
L 147.228579 95.95169 
L 147.228579 18.92625 
L 52.814063 18.92625 
z
" style="fill: #ffffff"/>
   </g>
   <g id="patch_3">
    <path d="M 57.105631 91.788153 
L 64.908484 91.788153 
L 64.908484 79.375203 
L 57.105631 79.375203 
z
" clip-path="url(#p0d09d6f145)"/>
   </g>
   <g id="patch_4">
    <path d="M 66.859197 91.788153 
L 74.66205 91.788153 
L 74.66205 79.861945 
L 66.859197 79.861945 
z
" clip-path="url(#p0d09d6f145)"/>
   </g>
   <g id="patch_5">
    <path d="M 76.612763 91.788153 
L 84.415616 91.788153 
L 84.415616 74.341784 
L 76.612763 74.341784 
z
" clip-path="url(#p0d09d6f145)"/>
   </g>
   <g id="patch_6">
    <path d="M 86.366329 91.788153 
L 94.169182 91.788153 
L 94.169182 46.842611 
L 86.366329 46.842611 
z
" clip-path="url(#p0d09d6f145)"/>
   </g>
   <g id="patch_7">
    <path d="M 96.119895 91.788153 
L 103.922747 91.788153 
L 103.922747 22.342474 
L 96.119895 22.342474 
z
" clip-path="url(#p0d09d6f145)"/>
   </g>
   <g id="patch_8">
    <path d="M 105.87346 91.788153 
L 113.676313 91.788153 
L 113.676313 62.101305 
L 105.87346 62.101305 
z
" clip-path="url(#p0d09d6f145)"/>
   </g>
   <g id="patch_9">
    <path d="M 115.627026 91.788153 
L 123.429879 91.788153 
L 123.429879 77.314122 
L 115.627026 77.314122 
z
" clip-path="url(#p0d09d6f145)"/>
   </g>
   <g id="patch_10">
    <path d="M 125.380592 91.788153 
L 133.183445 91.788153 
L 133.183445 80.014446 
L 125.380592 80.014446 
z
" clip-path="url(#p0d09d6f145)"/>
   </g>
   <g id="patch_11">
    <path d="M 135.134158 91.788153 
L 142.937011 91.788153 
L 142.937011 89.996936 
L 135.134158 89.996936 
z
" clip-path="url(#p0d09d6f145)"/>
   </g>
   <g id="matplotlib.axis_1">
    <g id="xtick_1">
     <g id="line2d_1">
      <defs>
       <path id="mcb447051e7" d="M 0 0 
L 0 3.5 
" style="stroke: #000000; stroke-width: 0.8"/>
      </defs>
      <g>
       <use xlink:href="#mcb447051e7" x="61.007058" y="95.95169" style="stroke: #000000; stroke-width: 0.8"/>
      </g>
     </g>
    </g>
    <g id="xtick_2">
     <g id="line2d_2">
      <g>
       <use xlink:href="#mcb447051e7" x="70.760624" y="95.95169" style="stroke: #000000; stroke-width: 0.8"/>
      </g>
     </g>
    </g>
    <g id="xtick_3">
     <g id="line2d_3">
      <g>
       <use xlink:href="#mcb447051e7" x="80.514189" y="95.95169" style="stroke: #000000; stroke-width: 0.8"/>
      </g>
     </g>
    </g>
    <g id="xtick_4">
     <g id="line2d_4">
      <g>
       <use xlink:href="#mcb447051e7" x="90.267755" y="95.95169" style="stroke: #000000; stroke-width: 0.8"/>
      </g>
     </g>
    </g>
    <g id="xtick_5">
     <g id="line2d_5">
      <g>
       <use xlink:href="#mcb447051e7" x="100.021321" y="95.95169" style="stroke: #000000; stroke-width: 0.8"/>
      </g>
     </g>
    </g>
    <g id="xtick_6">
     <g id="line2d_6">
      <g>
       <use xlink:href="#mcb447051e7" x="109.774887" y="95.95169" style="stroke: #000000; stroke-width: 0.8"/>
      </g>
     </g>
    </g>
    <g id="xtick_7">
     <g id="line2d_7">
      <g>
       <use xlink:href="#mcb447051e7" x="119.528453" y="95.95169" style="stroke: #000000; stroke-width: 0.8"/>
      </g>
     </g>
    </g>
    <g id="xtick_8">
     <g id="line2d_8">
      <g>
       <use xlink:href="#mcb447051e7" x="129.282018" y="95.95169" style="stroke: #000000; stroke-width: 0.8"/>
      </g>
     </g>
    </g>
    <g id="xtick_9">
     <g id="line2d_9">
      <g>
       <use xlink:href="#mcb447051e7" x="139.035584" y="95.95169" style="stroke: #000000; stroke-width: 0.8"/>
      </g>
     </g>
    </g>
   </g>
   <g id="matplotlib.axis_2">
    <g id="ytick_1">
     <g id="line2d_10">
      <defs>
       <path id="mf30da48819" d="M 0 0 
L -3.5 0 
" style="stroke: #000000; stroke-width: 0.8"/>
      </defs>
      <g>
       <use xlink:href="#mf30da48819" x="52.814063" y="91.788153" style="stroke: #000000; stroke-width: 0.8"/>
      </g>
     </g>
     <g id="text_1">
      <!-- 0.0 -->
      <g transform="translate(34.694063 94.651278) scale(0.08 -0.08)">
       <defs>
        <path id="ArialMT-30" d="M 266 2259 
Q 266 3072 433 3567 
Q 600 4063 929 4331 
Q 1259 4600 1759 4600 
Q 2128 4600 2406 4451 
Q 2684 4303 2865 4023 
Q 3047 3744 3150 3342 
Q 3253 2941 3253 2259 
Q 3253 1453 3087 958 
Q 2922 463 2592 192 
Q 2263 -78 1759 -78 
Q 1097 -78 719 397 
Q 266 969 266 2259 
z
M 844 2259 
Q 844 1131 1108 757 
Q 1372 384 1759 384 
Q 2147 384 2411 759 
Q 2675 1134 2675 2259 
Q 2675 3391 2411 3762 
Q 2147 4134 1753 4134 
Q 1366 4134 1134 3806 
Q 844 3388 844 2259 
z
" transform="scale(0.015625)"/>
        <path id="ArialMT-2e" d="M 581 0 
L 581 641 
L 1222 641 
L 1222 0 
L 581 0 
z
" transform="scale(0.015625)"/>
       </defs>
       <use xlink:href="#ArialMT-30"/>
       <use xlink:href="#ArialMT-2e" transform="translate(55.615234 0)"/>
       <use xlink:href="#ArialMT-30" transform="translate(83.398438 0)"/>
      </g>
     </g>
    </g>
    <g id="ytick_2">
     <g id="line2d_11">
      <g>
       <use xlink:href="#mf30da48819" x="52.814063" y="70.970466" style="stroke: #000000; stroke-width: 0.8"/>
      </g>
     </g>
     <g id="text_2">
      <!-- 0.1 -->
      <g transform="translate(34.694063 73.833591) scale(0.08 -0.08)">
       <defs>
        <path id="ArialMT-31" d="M 2384 0 
L 1822 0 
L 1822 3584 
Q 1619 3391 1289 3197 
Q 959 3003 697 2906 
L 697 3450 
Q 1169 3672 1522 3987 
Q 1875 4303 2022 4600 
L 2384 4600 
L 2384 0 
z
" transform="scale(0.015625)"/>
       </defs>
       <use xlink:href="#ArialMT-30"/>
       <use xlink:href="#ArialMT-2e" transform="translate(55.615234 0)"/>
       <use xlink:href="#ArialMT-31" transform="translate(83.398438 0)"/>
      </g>
     </g>
    </g>
    <g id="ytick_3">
     <g id="line2d_12">
      <g>
       <use xlink:href="#mf30da48819" x="52.814063" y="50.15278" style="stroke: #000000; stroke-width: 0.8"/>
      </g>
     </g>
     <g id="text_3">
      <!-- 0.2 -->
      <g transform="translate(34.694063 53.015905) scale(0.08 -0.08)">
       <defs>
        <path id="ArialMT-32" d="M 3222 541 
L 3222 0 
L 194 0 
Q 188 203 259 391 
Q 375 700 629 1000 
Q 884 1300 1366 1694 
Q 2113 2306 2375 2664 
Q 2638 3022 2638 3341 
Q 2638 3675 2398 3904 
Q 2159 4134 1775 4134 
Q 1369 4134 1125 3890 
Q 881 3647 878 3216 
L 300 3275 
Q 359 3922 746 4261 
Q 1134 4600 1788 4600 
Q 2447 4600 2831 4234 
Q 3216 3869 3216 3328 
Q 3216 3053 3103 2787 
Q 2991 2522 2730 2228 
Q 2469 1934 1863 1422 
Q 1356 997 1212 845 
Q 1069 694 975 541 
L 3222 541 
z
" transform="scale(0.015625)"/>
       </defs>
       <use xlink:href="#ArialMT-30"/>
       <use xlink:href="#ArialMT-2e" transform="translate(55.615234 0)"/>
       <use xlink:href="#ArialMT-32" transform="translate(83.398438 0)"/>
      </g>
     </g>
    </g>
    <g id="ytick_4">
     <g id="line2d_13">
      <g>
       <use xlink:href="#mf30da48819" x="52.814063" y="29.335093" style="stroke: #000000; stroke-width: 0.8"/>
      </g>
     </g>
     <g id="text_4">
      <!-- 0.3 -->
      <g transform="translate(34.694063 32.198218) scale(0.08 -0.08)">
       <defs>
        <path id="ArialMT-33" d="M 269 1209 
L 831 1284 
Q 928 806 1161 595 
Q 1394 384 1728 384 
Q 2125 384 2398 659 
Q 2672 934 2672 1341 
Q 2672 1728 2419 1979 
Q 2166 2231 1775 2231 
Q 1616 2231 1378 2169 
L 1441 2663 
Q 1497 2656 1531 2656 
Q 1891 2656 2178 2843 
Q 2466 3031 2466 3422 
Q 2466 3731 2256 3934 
Q 2047 4138 1716 4138 
Q 1388 4138 1169 3931 
Q 950 3725 888 3313 
L 325 3413 
Q 428 3978 793 4289 
Q 1159 4600 1703 4600 
Q 2078 4600 2393 4439 
Q 2709 4278 2876 4000 
Q 3044 3722 3044 3409 
Q 3044 3113 2884 2869 
Q 2725 2625 2413 2481 
Q 2819 2388 3044 2092 
Q 3269 1797 3269 1353 
Q 3269 753 2831 336 
Q 2394 -81 1725 -81 
Q 1122 -81 723 278 
Q 325 638 269 1209 
z
" transform="scale(0.015625)"/>
       </defs>
       <use xlink:href="#ArialMT-30"/>
       <use xlink:href="#ArialMT-2e" transform="translate(55.615234 0)"/>
       <use xlink:href="#ArialMT-33" transform="translate(83.398438 0)"/>
      </g>
     </g>
    </g>
    <g id="text_5">
     <!-- $D_{KL}(\hat{q}_{\tau=1} || p_T)$ -->
     <g transform="translate(17.5 88.78897) rotate(-90) scale(0.1 -0.1)">
      <defs>
       <path id="Cmmi10-44" d="M 313 0 
Q 250 0 250 84 
Q 253 100 262 139 
Q 272 178 289 201 
Q 306 225 331 225 
Q 722 225 878 269 
Q 959 297 997 441 
L 1875 3956 
Q 1888 4019 1888 4044 
Q 1888 4113 1813 4122 
Q 1691 4147 1350 4147 
Q 1288 4147 1288 4231 
Q 1291 4247 1300 4286 
Q 1309 4325 1326 4348 
Q 1344 4372 1369 4372 
L 3669 4372 
Q 4116 4372 4450 4155 
Q 4784 3938 4962 3570 
Q 5141 3203 5141 2759 
Q 5141 2269 4937 1778 
Q 4734 1288 4368 881 
Q 4003 475 3534 237 
Q 3066 0 2572 0 
L 313 0 
z
M 1509 275 
Q 1509 225 1728 225 
L 2472 225 
Q 2828 225 3159 372 
Q 3491 519 3750 775 
Q 3991 1016 4175 1406 
Q 4359 1797 4461 2222 
Q 4563 2647 4563 3003 
Q 4563 3263 4486 3472 
Q 4409 3681 4270 3831 
Q 4131 3981 3922 4064 
Q 3713 4147 3450 4147 
L 2747 4147 
Q 2572 4147 2515 4117 
Q 2459 4088 2413 3928 
L 1538 416 
Q 1509 338 1509 275 
z
" transform="scale(0.015625)"/>
       <path id="Cmmi10-4b" d="M 300 0 
Q 238 0 238 84 
Q 241 100 250 139 
Q 259 178 276 201 
Q 294 225 319 225 
Q 709 225 863 269 
Q 947 297 984 441 
L 1863 3956 
Q 1875 4019 1875 4044 
Q 1875 4113 1797 4122 
Q 1678 4147 1338 4147 
Q 1275 4147 1275 4231 
Q 1297 4313 1309 4342 
Q 1322 4372 1381 4372 
L 3103 4372 
Q 3169 4372 3169 4288 
Q 3166 4272 3156 4234 
Q 3147 4197 3131 4172 
Q 3116 4147 3084 4147 
Q 2694 4147 2541 4103 
Q 2456 4072 2419 3928 
L 1900 1856 
L 4409 3794 
Q 4416 3806 4489 3879 
Q 4563 3953 4563 4025 
Q 4563 4147 4347 4147 
Q 4281 4147 4281 4231 
Q 4294 4281 4301 4309 
Q 4309 4338 4329 4355 
Q 4350 4372 4391 4372 
L 5631 4372 
Q 5666 4372 5681 4347 
Q 5697 4322 5697 4288 
Q 5694 4272 5683 4231 
Q 5672 4191 5655 4169 
Q 5638 4147 5606 4147 
Q 5138 4147 4581 3713 
Q 4578 3709 4572 3707 
Q 4566 3706 4559 3704 
Q 4553 3703 4550 3700 
L 3231 2675 
L 4191 428 
Q 4278 288 4378 256 
Q 4478 225 4684 225 
Q 4750 225 4750 141 
Q 4731 66 4712 33 
Q 4694 0 4641 0 
L 3156 0 
Q 3097 0 3097 84 
Q 3106 150 3118 187 
Q 3131 225 3181 225 
Q 3344 225 3458 258 
Q 3572 291 3572 409 
Q 3572 453 3566 475 
L 2772 2322 
L 1838 1600 
L 1544 416 
Q 1528 338 1528 325 
Q 1528 259 1606 250 
Q 1728 225 2069 225 
Q 2131 225 2131 141 
Q 2109 50 2096 25 
Q 2084 0 2022 0 
L 300 0 
z
" transform="scale(0.015625)"/>
       <path id="Cmmi10-4c" d="M 300 0 
Q 238 0 238 84 
Q 241 100 250 139 
Q 259 178 276 201 
Q 294 225 319 225 
Q 709 225 863 269 
Q 947 297 984 441 
L 1863 3956 
Q 1875 4019 1875 4044 
Q 1875 4113 1797 4122 
Q 1678 4147 1338 4147 
Q 1275 4147 1275 4231 
Q 1297 4313 1309 4342 
Q 1322 4372 1381 4372 
L 3272 4372 
Q 3328 4372 3328 4288 
Q 3319 4222 3306 4184 
Q 3294 4147 3244 4147 
Q 2772 4147 2613 4116 
Q 2456 4088 2419 3928 
L 1544 416 
Q 1516 338 1516 275 
Q 1516 225 1734 225 
L 2328 225 
Q 2831 225 3143 425 
Q 3456 625 3606 876 
Q 3756 1128 3857 1398 
Q 3959 1669 4006 1678 
L 4063 1678 
Q 4128 1678 4128 1594 
L 3559 44 
Q 3550 0 3500 0 
L 300 0 
z
" transform="scale(0.015625)"/>
       <path id="Cmr10-28" d="M 1984 -1588 
Q 1628 -1306 1370 -942 
Q 1113 -578 948 -165 
Q 784 247 703 697 
Q 622 1147 622 1600 
Q 622 2059 703 2509 
Q 784 2959 951 3375 
Q 1119 3791 1378 4153 
Q 1638 4516 1984 4788 
Q 1984 4800 2016 4800 
L 2075 4800 
Q 2094 4800 2109 4783 
Q 2125 4766 2125 4744 
Q 2125 4716 2113 4703 
Q 1800 4397 1592 4047 
Q 1384 3697 1257 3301 
Q 1131 2906 1075 2482 
Q 1019 2059 1019 1600 
Q 1019 -434 2106 -1491 
Q 2125 -1509 2125 -1544 
Q 2125 -1559 2108 -1579 
Q 2091 -1600 2075 -1600 
L 2016 -1600 
Q 1984 -1600 1984 -1588 
z
" transform="scale(0.015625)"/>
       <path id="Cmr10-5e" d="M 863 3444 
L 738 3578 
L 1600 4441 
L 2456 3578 
L 2328 3444 
L 1600 4084 
L 863 3444 
z
" transform="scale(0.015625)"/>
       <path id="Cmmi10-71" d="M 941 -1159 
Q 963 -1019 1025 -1019 
Q 1256 -1019 1389 -981 
Q 1522 -944 1563 -800 
L 1838 288 
Q 1472 -72 1106 -72 
Q 703 -72 473 233 
Q 244 538 244 953 
Q 244 1363 455 1803 
Q 666 2244 1027 2536 
Q 1388 2828 1806 2828 
Q 2000 2828 2156 2712 
Q 2313 2597 2394 2406 
Q 2431 2481 2601 2654 
Q 2772 2828 2841 2828 
Q 2913 2828 2913 2747 
L 2016 -825 
Q 2000 -919 1997 -934 
Q 1997 -1019 2419 -1019 
Q 2450 -1019 2467 -1044 
Q 2484 -1069 2484 -1100 
Q 2463 -1184 2448 -1212 
Q 2434 -1241 2375 -1241 
L 1006 -1241 
Q 941 -1241 941 -1159 
z
M 1119 97 
Q 1344 97 1558 267 
Q 1772 438 1931 672 
L 2291 2113 
Q 2253 2338 2126 2500 
Q 2000 2663 1791 2663 
Q 1575 2663 1389 2486 
Q 1203 2309 1075 2069 
Q 950 1813 836 1366 
Q 722 919 722 672 
Q 722 450 817 273 
Q 913 97 1119 97 
z
" transform="scale(0.015625)"/>
       <path id="Cmmi10-bf" d="M 997 97 
Q 997 141 1006 166 
L 1678 2363 
L 1100 2363 
Q 866 2363 662 2216 
Q 459 2069 325 1844 
Q 313 1819 288 1819 
L 213 1819 
Q 153 1819 153 1881 
Q 153 1894 166 1919 
Q 375 2275 614 2517 
Q 853 2759 1153 2759 
L 3116 2759 
Q 3184 2759 3231 2712 
Q 3278 2666 3278 2597 
Q 3278 2503 3211 2433 
Q 3144 2363 3047 2363 
L 1888 2363 
L 1459 153 
Q 1434 50 1365 -17 
Q 1297 -84 1191 -84 
Q 1109 -84 1053 -32 
Q 997 19 997 97 
z
" transform="scale(0.015625)"/>
       <path id="Cmr10-3d" d="M 481 850 
Q 428 850 393 890 
Q 359 931 359 978 
Q 359 1031 393 1068 
Q 428 1106 481 1106 
L 4500 1106 
Q 4547 1106 4581 1068 
Q 4616 1031 4616 978 
Q 4616 931 4581 890 
Q 4547 850 4500 850 
L 481 850 
z
M 481 2094 
Q 428 2094 393 2131 
Q 359 2169 359 2222 
Q 359 2269 393 2309 
Q 428 2350 481 2350 
L 4500 2350 
Q 4547 2350 4581 2309 
Q 4616 2269 4616 2222 
Q 4616 2169 4581 2131 
Q 4547 2094 4500 2094 
L 481 2094 
z
" transform="scale(0.015625)"/>
       <path id="Cmr10-31" d="M 594 0 
L 594 225 
Q 1394 225 1394 428 
L 1394 3788 
Q 1063 3628 556 3628 
L 556 3853 
Q 1341 3853 1741 4263 
L 1831 4263 
Q 1853 4263 1873 4245 
Q 1894 4228 1894 4206 
L 1894 428 
Q 1894 225 2694 225 
L 2694 0 
L 594 0 
z
" transform="scale(0.015625)"/>
       <path id="Cmsy10-6a" d="M 763 -1484 
L 763 4684 
Q 763 4734 800 4767 
Q 838 4800 891 4800 
Q 938 4800 978 4767 
Q 1019 4734 1019 4684 
L 1019 -1484 
Q 1019 -1534 978 -1567 
Q 938 -1600 891 -1600 
Q 838 -1600 800 -1567 
Q 763 -1534 763 -1484 
z
" transform="scale(0.015625)"/>
       <path id="Cmmi10-70" d="M -159 -1241 
Q -219 -1241 -219 -1159 
Q -197 -1019 -134 -1019 
Q 66 -1019 145 -983 
Q 225 -947 269 -800 
L 991 2081 
Q 1038 2200 1038 2388 
Q 1038 2663 850 2663 
Q 650 2663 553 2423 
Q 456 2184 366 1819 
Q 366 1778 313 1778 
L 238 1778 
Q 222 1778 203 1801 
Q 184 1825 184 1844 
Q 253 2122 317 2315 
Q 381 2509 517 2668 
Q 653 2828 856 2828 
Q 1075 2828 1240 2704 
Q 1406 2581 1453 2369 
Q 1628 2572 1840 2700 
Q 2053 2828 2278 2828 
Q 2547 2828 2745 2684 
Q 2944 2541 3044 2308 
Q 3144 2075 3144 1806 
Q 3144 1394 2933 953 
Q 2722 513 2361 220 
Q 2000 -72 1588 -72 
Q 1400 -72 1248 34 
Q 1097 141 1013 313 
L 722 -825 
Q 706 -919 703 -934 
Q 703 -1019 1125 -1019 
Q 1191 -1019 1191 -1100 
Q 1169 -1184 1155 -1212 
Q 1141 -1241 1081 -1241 
L -159 -1241 
z
M 1594 97 
Q 1816 97 2006 280 
Q 2197 463 2316 691 
Q 2403 863 2479 1111 
Q 2556 1359 2612 1640 
Q 2669 1922 2669 2088 
Q 2669 2234 2630 2362 
Q 2591 2491 2502 2577 
Q 2413 2663 2266 2663 
Q 2031 2663 1823 2495 
Q 1616 2328 1447 2081 
L 1447 2059 
L 1094 647 
Q 1138 419 1263 258 
Q 1388 97 1594 97 
z
" transform="scale(0.015625)"/>
       <path id="Cmmi10-54" d="M 294 84 
Q 297 100 308 140 
Q 319 181 336 203 
Q 353 225 384 225 
Q 934 225 1113 256 
Q 1284 300 1319 441 
L 2194 3956 
Q 2222 4034 2222 4097 
Q 2222 4147 1997 4147 
L 1625 4147 
Q 1197 4147 964 4015 
Q 731 3884 622 3668 
Q 513 3453 341 2963 
Q 319 2906 275 2906 
L 219 2906 
Q 153 2906 153 2988 
L 609 4313 
Q 622 4372 672 4372 
L 4453 4372 
Q 4519 4372 4519 4288 
L 4306 2963 
Q 4306 2944 4284 2925 
Q 4263 2906 4244 2906 
L 4184 2906 
Q 4122 2906 4122 2988 
Q 4191 3441 4191 3628 
Q 4191 3853 4097 3968 
Q 4003 4084 3853 4115 
Q 3703 4147 3463 4147 
L 3084 4147 
Q 2913 4147 2853 4115 
Q 2794 4084 2753 3928 
L 1875 416 
Q 1872 403 1870 390 
Q 1869 378 1863 359 
Q 1863 278 1959 256 
Q 2125 225 2669 225 
Q 2731 225 2731 141 
Q 2709 50 2696 25 
Q 2684 0 2625 0 
L 359 0 
Q 294 0 294 84 
z
" transform="scale(0.015625)"/>
       <path id="Cmr10-29" d="M 416 -1600 
Q 359 -1600 359 -1544 
Q 359 -1516 372 -1503 
Q 1466 -434 1466 1600 
Q 1466 3634 384 4691 
Q 359 4706 359 4744 
Q 359 4766 376 4783 
Q 394 4800 416 4800 
L 475 4800 
Q 494 4800 506 4788 
Q 966 4425 1272 3906 
Q 1578 3388 1720 2800 
Q 1863 2213 1863 1600 
Q 1863 1147 1786 708 
Q 1709 269 1542 -157 
Q 1375 -584 1119 -945 
Q 863 -1306 506 -1588 
Q 494 -1600 475 -1600 
L 416 -1600 
z
" transform="scale(0.015625)"/>
      </defs>
      <use xlink:href="#Cmmi10-44"/>
      <use xlink:href="#Cmmi10-4b" transform="translate(82.714844 -17.00625) scale(0.7)"/>
      <use xlink:href="#Cmmi10-4c" transform="translate(142.15332 -17.00625) scale(0.7)"/>
      <use xlink:href="#Cmr10-28" transform="translate(196.142969 0)"/>
      <use xlink:href="#Cmr10-5e" transform="translate(237.575098 2.875)"/>
      <use xlink:href="#Cmmi10-71" transform="translate(234.961328 0)"/>
      <use xlink:href="#Cmmi10-bf" transform="translate(284.005547 -17.00625) scale(0.7)"/>
      <use xlink:href="#Cmr10-3d" transform="translate(326.887383 -17.00625) scale(0.7)"/>
      <use xlink:href="#Cmr10-31" transform="translate(393.558281 -17.00625) scale(0.7)"/>
      <use xlink:href="#Cmsy10-6a" transform="translate(434.935625 0)"/>
      <use xlink:href="#Cmsy10-6a" transform="translate(462.621172 0)"/>
      <use xlink:href="#Cmmi10-70" transform="translate(490.306719 0)"/>
      <use xlink:href="#Cmmi10-54" transform="translate(540.599687 -17.00625) scale(0.7)"/>
      <use xlink:href="#Cmr10-29" transform="translate(587.855937 0)"/>
     </g>
     <!-- per energy level -->
     <g transform="translate(28.589375 93.012408) rotate(-90) scale(0.1 -0.1)">
      <defs>
       <path id="ArialMT-70" d="M 422 -1272 
L 422 3319 
L 934 3319 
L 934 2888 
Q 1116 3141 1344 3267 
Q 1572 3394 1897 3394 
Q 2322 3394 2647 3175 
Q 2972 2956 3137 2557 
Q 3303 2159 3303 1684 
Q 3303 1175 3120 767 
Q 2938 359 2589 142 
Q 2241 -75 1856 -75 
Q 1575 -75 1351 44 
Q 1128 163 984 344 
L 984 -1272 
L 422 -1272 
z
M 931 1641 
Q 931 1000 1190 694 
Q 1450 388 1819 388 
Q 2194 388 2461 705 
Q 2728 1022 2728 1688 
Q 2728 2322 2467 2637 
Q 2206 2953 1844 2953 
Q 1484 2953 1207 2617 
Q 931 2281 931 1641 
z
" transform="scale(0.015625)"/>
       <path id="ArialMT-65" d="M 2694 1069 
L 3275 997 
Q 3138 488 2766 206 
Q 2394 -75 1816 -75 
Q 1088 -75 661 373 
Q 234 822 234 1631 
Q 234 2469 665 2931 
Q 1097 3394 1784 3394 
Q 2450 3394 2872 2941 
Q 3294 2488 3294 1666 
Q 3294 1616 3291 1516 
L 816 1516 
Q 847 969 1125 678 
Q 1403 388 1819 388 
Q 2128 388 2347 550 
Q 2566 713 2694 1069 
z
M 847 1978 
L 2700 1978 
Q 2663 2397 2488 2606 
Q 2219 2931 1791 2931 
Q 1403 2931 1139 2672 
Q 875 2413 847 1978 
z
" transform="scale(0.015625)"/>
       <path id="ArialMT-72" d="M 416 0 
L 416 3319 
L 922 3319 
L 922 2816 
Q 1116 3169 1280 3281 
Q 1444 3394 1641 3394 
Q 1925 3394 2219 3213 
L 2025 2691 
Q 1819 2813 1613 2813 
Q 1428 2813 1281 2702 
Q 1134 2591 1072 2394 
Q 978 2094 978 1738 
L 978 0 
L 416 0 
z
" transform="scale(0.015625)"/>
       <path id="ArialMT-20" transform="scale(0.015625)"/>
       <path id="ArialMT-6e" d="M 422 0 
L 422 3319 
L 928 3319 
L 928 2847 
Q 1294 3394 1984 3394 
Q 2284 3394 2536 3286 
Q 2788 3178 2913 3003 
Q 3038 2828 3088 2588 
Q 3119 2431 3119 2041 
L 3119 0 
L 2556 0 
L 2556 2019 
Q 2556 2363 2490 2533 
Q 2425 2703 2258 2804 
Q 2091 2906 1866 2906 
Q 1506 2906 1245 2678 
Q 984 2450 984 1813 
L 984 0 
L 422 0 
z
" transform="scale(0.015625)"/>
       <path id="ArialMT-67" d="M 319 -275 
L 866 -356 
Q 900 -609 1056 -725 
Q 1266 -881 1628 -881 
Q 2019 -881 2231 -725 
Q 2444 -569 2519 -288 
Q 2563 -116 2559 434 
Q 2191 0 1641 0 
Q 956 0 581 494 
Q 206 988 206 1678 
Q 206 2153 378 2554 
Q 550 2956 876 3175 
Q 1203 3394 1644 3394 
Q 2231 3394 2613 2919 
L 2613 3319 
L 3131 3319 
L 3131 450 
Q 3131 -325 2973 -648 
Q 2816 -972 2473 -1159 
Q 2131 -1347 1631 -1347 
Q 1038 -1347 672 -1080 
Q 306 -813 319 -275 
z
M 784 1719 
Q 784 1066 1043 766 
Q 1303 466 1694 466 
Q 2081 466 2343 764 
Q 2606 1063 2606 1700 
Q 2606 2309 2336 2618 
Q 2066 2928 1684 2928 
Q 1309 2928 1046 2623 
Q 784 2319 784 1719 
z
" transform="scale(0.015625)"/>
       <path id="ArialMT-79" d="M 397 -1278 
L 334 -750 
Q 519 -800 656 -800 
Q 844 -800 956 -737 
Q 1069 -675 1141 -563 
Q 1194 -478 1313 -144 
Q 1328 -97 1363 -6 
L 103 3319 
L 709 3319 
L 1400 1397 
Q 1534 1031 1641 628 
Q 1738 1016 1872 1384 
L 2581 3319 
L 3144 3319 
L 1881 -56 
Q 1678 -603 1566 -809 
Q 1416 -1088 1222 -1217 
Q 1028 -1347 759 -1347 
Q 597 -1347 397 -1278 
z
" transform="scale(0.015625)"/>
       <path id="ArialMT-6c" d="M 409 0 
L 409 4581 
L 972 4581 
L 972 0 
L 409 0 
z
" transform="scale(0.015625)"/>
       <path id="ArialMT-76" d="M 1344 0 
L 81 3319 
L 675 3319 
L 1388 1331 
Q 1503 1009 1600 663 
Q 1675 925 1809 1294 
L 2547 3319 
L 3125 3319 
L 1869 0 
L 1344 0 
z
" transform="scale(0.015625)"/>
      </defs>
      <use xlink:href="#ArialMT-70"/>
      <use xlink:href="#ArialMT-65" transform="translate(55.615234 0)"/>
      <use xlink:href="#ArialMT-72" transform="translate(111.230469 0)"/>
      <use xlink:href="#ArialMT-20" transform="translate(144.53125 0)"/>
      <use xlink:href="#ArialMT-65" transform="translate(172.314453 0)"/>
      <use xlink:href="#ArialMT-6e" transform="translate(227.929688 0)"/>
      <use xlink:href="#ArialMT-65" transform="translate(283.544922 0)"/>
      <use xlink:href="#ArialMT-72" transform="translate(339.160156 0)"/>
      <use xlink:href="#ArialMT-67" transform="translate(372.460938 0)"/>
      <use xlink:href="#ArialMT-79" transform="translate(428.076172 0)"/>
      <use xlink:href="#ArialMT-20" transform="translate(478.076172 0)"/>
      <use xlink:href="#ArialMT-6c" transform="translate(505.859375 0)"/>
      <use xlink:href="#ArialMT-65" transform="translate(528.076172 0)"/>
      <use xlink:href="#ArialMT-76" transform="translate(583.691406 0)"/>
      <use xlink:href="#ArialMT-65" transform="translate(633.691406 0)"/>
      <use xlink:href="#ArialMT-6c" transform="translate(689.306641 0)"/>
     </g>
    </g>
   </g>
   <g id="patch_12">
    <path d="M 52.814063 95.95169 
L 52.814063 18.92625 
" style="fill: none; stroke: #000000; stroke-width: 0.8; stroke-linejoin: miter; stroke-linecap: square"/>
   </g>
   <g id="patch_13">
    <path d="M 147.228579 95.95169 
L 147.228579 18.92625 
" style="fill: none; stroke: #000000; stroke-width: 0.8; stroke-linejoin: miter; stroke-linecap: square"/>
   </g>
   <g id="patch_14">
    <path d="M 52.814063 95.95169 
L 147.228579 95.95169 
" style="fill: none; stroke: #000000; stroke-width: 0.8; stroke-linejoin: miter; stroke-linecap: square"/>
   </g>
   <g id="patch_15">
    <path d="M 52.814063 18.92625 
L 147.228579 18.92625 
" style="fill: none; stroke: #000000; stroke-width: 0.8; stroke-linejoin: miter; stroke-linecap: square"/>
   </g>
   <g id="text_6">
    <!-- low T experiment -->
    <g transform="translate(69.708196 12.92625) scale(0.08 -0.08)">
     <defs>
      <path id="ArialMT-6f" d="M 213 1659 
Q 213 2581 725 3025 
Q 1153 3394 1769 3394 
Q 2453 3394 2887 2945 
Q 3322 2497 3322 1706 
Q 3322 1066 3130 698 
Q 2938 331 2570 128 
Q 2203 -75 1769 -75 
Q 1072 -75 642 372 
Q 213 819 213 1659 
z
M 791 1659 
Q 791 1022 1069 705 
Q 1347 388 1769 388 
Q 2188 388 2466 706 
Q 2744 1025 2744 1678 
Q 2744 2294 2464 2611 
Q 2184 2928 1769 2928 
Q 1347 2928 1069 2612 
Q 791 2297 791 1659 
z
" transform="scale(0.015625)"/>
      <path id="ArialMT-77" d="M 1034 0 
L 19 3319 
L 600 3319 
L 1128 1403 
L 1325 691 
Q 1338 744 1497 1375 
L 2025 3319 
L 2603 3319 
L 3100 1394 
L 3266 759 
L 3456 1400 
L 4025 3319 
L 4572 3319 
L 3534 0 
L 2950 0 
L 2422 1988 
L 2294 2553 
L 1622 0 
L 1034 0 
z
" transform="scale(0.015625)"/>
      <path id="ArialMT-54" d="M 1659 0 
L 1659 4041 
L 150 4041 
L 150 4581 
L 3781 4581 
L 3781 4041 
L 2266 4041 
L 2266 0 
L 1659 0 
z
" transform="scale(0.015625)"/>
      <path id="ArialMT-78" d="M 47 0 
L 1259 1725 
L 138 3319 
L 841 3319 
L 1350 2541 
Q 1494 2319 1581 2169 
Q 1719 2375 1834 2534 
L 2394 3319 
L 3066 3319 
L 1919 1756 
L 3153 0 
L 2463 0 
L 1781 1031 
L 1600 1309 
L 728 0 
L 47 0 
z
" transform="scale(0.015625)"/>
      <path id="ArialMT-69" d="M 425 3934 
L 425 4581 
L 988 4581 
L 988 3934 
L 425 3934 
z
M 425 0 
L 425 3319 
L 988 3319 
L 988 0 
L 425 0 
z
" transform="scale(0.015625)"/>
      <path id="ArialMT-6d" d="M 422 0 
L 422 3319 
L 925 3319 
L 925 2853 
Q 1081 3097 1340 3245 
Q 1600 3394 1931 3394 
Q 2300 3394 2536 3241 
Q 2772 3088 2869 2813 
Q 3263 3394 3894 3394 
Q 4388 3394 4653 3120 
Q 4919 2847 4919 2278 
L 4919 0 
L 4359 0 
L 4359 2091 
Q 4359 2428 4304 2576 
Q 4250 2725 4106 2815 
Q 3963 2906 3769 2906 
Q 3419 2906 3187 2673 
Q 2956 2441 2956 1928 
L 2956 0 
L 2394 0 
L 2394 2156 
Q 2394 2531 2256 2718 
Q 2119 2906 1806 2906 
Q 1569 2906 1367 2781 
Q 1166 2656 1075 2415 
Q 984 2175 984 1722 
L 984 0 
L 422 0 
z
" transform="scale(0.015625)"/>
      <path id="ArialMT-74" d="M 1650 503 
L 1731 6 
Q 1494 -44 1306 -44 
Q 1000 -44 831 53 
Q 663 150 594 308 
Q 525 466 525 972 
L 525 2881 
L 113 2881 
L 113 3319 
L 525 3319 
L 525 4141 
L 1084 4478 
L 1084 3319 
L 1650 3319 
L 1650 2881 
L 1084 2881 
L 1084 941 
Q 1084 700 1114 631 
Q 1144 563 1211 522 
Q 1278 481 1403 481 
Q 1497 481 1650 503 
z
" transform="scale(0.015625)"/>
     </defs>
     <use xlink:href="#ArialMT-6c"/>
     <use xlink:href="#ArialMT-6f" transform="translate(22.216797 0)"/>
     <use xlink:href="#ArialMT-77" transform="translate(77.832031 0)"/>
     <use xlink:href="#ArialMT-20" transform="translate(150.048828 0)"/>
     <use xlink:href="#ArialMT-54" transform="translate(176.082031 0)"/>
     <use xlink:href="#ArialMT-20" transform="translate(235.416016 0)"/>
     <use xlink:href="#ArialMT-65" transform="translate(263.199219 0)"/>
     <use xlink:href="#ArialMT-78" transform="translate(318.814453 0)"/>
     <use xlink:href="#ArialMT-70" transform="translate(368.814453 0)"/>
     <use xlink:href="#ArialMT-65" transform="translate(424.429688 0)"/>
     <use xlink:href="#ArialMT-72" transform="translate(480.044922 0)"/>
     <use xlink:href="#ArialMT-69" transform="translate(513.345703 0)"/>
     <use xlink:href="#ArialMT-6d" transform="translate(535.5625 0)"/>
     <use xlink:href="#ArialMT-65" transform="translate(618.863281 0)"/>
     <use xlink:href="#ArialMT-6e" transform="translate(674.478516 0)"/>
     <use xlink:href="#ArialMT-74" transform="translate(730.09375 0)"/>
    </g>
   </g>
  </g>
  <g id="axes_2">
   <g id="patch_16">
    <path d="M 52.814063 180.679675 
L 147.228579 180.679675 
L 147.228579 103.654234 
L 52.814063 103.654234 
z
" style="fill: #ffffff"/>
   </g>
   <g id="patch_17">
    <path d="M 57.105631 152.950516 
L 64.908484 152.950516 
L 64.908484 162.323219 
L 57.105631 162.323219 
z
" clip-path="url(#p509b8b2eaf)"/>
   </g>
   <g id="patch_18">
    <path d="M 66.859197 152.950516 
L 74.66205 152.950516 
L 74.66205 158.139118 
L 66.859197 158.139118 
z
" clip-path="url(#p509b8b2eaf)"/>
   </g>
   <g id="patch_19">
    <path d="M 76.612763 152.950516 
L 84.415616 152.950516 
L 84.415616 155.295065 
L 76.612763 155.295065 
z
" clip-path="url(#p509b8b2eaf)"/>
   </g>
   <g id="patch_20">
    <path d="M 86.366329 152.950516 
L 94.169182 152.950516 
L 94.169182 134.528889 
L 86.366329 134.528889 
z
" clip-path="url(#p509b8b2eaf)"/>
   </g>
   <g id="patch_21">
    <path d="M 96.119895 152.950516 
L 103.922747 152.950516 
L 103.922747 107.90436 
L 96.119895 107.90436 
z
" clip-path="url(#p509b8b2eaf)"/>
   </g>
   <g id="patch_22">
    <path d="M 105.87346 152.950516 
L 113.676313 152.950516 
L 113.676313 126.665214 
L 105.87346 126.665214 
z
" clip-path="url(#p509b8b2eaf)"/>
   </g>
   <g id="patch_23">
    <path d="M 115.627026 152.950516 
L 123.429879 152.950516 
L 123.429879 136.75752 
L 115.627026 136.75752 
z
" clip-path="url(#p509b8b2eaf)"/>
   </g>
   <g id="patch_24">
    <path d="M 125.380592 152.950516 
L 133.183445 152.950516 
L 133.183445 142.915967 
L 125.380592 142.915967 
z
" clip-path="url(#p509b8b2eaf)"/>
   </g>
   <g id="patch_25">
    <path d="M 135.134158 152.950516 
L 142.937011 152.950516 
L 142.937011 150.833813 
L 135.134158 150.833813 
z
" clip-path="url(#p509b8b2eaf)"/>
   </g>
   <g id="matplotlib.axis_3">
    <g id="xtick_10">
     <g id="line2d_14">
      <g>
       <use xlink:href="#mcb447051e7" x="61.007058" y="180.679675" style="stroke: #000000; stroke-width: 0.8"/>
      </g>
     </g>
     <g id="text_7">
      <!-- 1 -->
      <g transform="translate(58.782683 193.405925) scale(0.08 -0.08)">
       <use xlink:href="#ArialMT-31"/>
      </g>
     </g>
    </g>
    <g id="xtick_11">
     <g id="line2d_15">
      <g>
       <use xlink:href="#mcb447051e7" x="70.760624" y="180.679675" style="stroke: #000000; stroke-width: 0.8"/>
      </g>
     </g>
     <g id="text_8">
      <!-- 2 -->
      <g transform="translate(68.536249 193.405925) scale(0.08 -0.08)">
       <use xlink:href="#ArialMT-32"/>
      </g>
     </g>
    </g>
    <g id="xtick_12">
     <g id="line2d_16">
      <g>
       <use xlink:href="#mcb447051e7" x="80.514189" y="180.679675" style="stroke: #000000; stroke-width: 0.8"/>
      </g>
     </g>
     <g id="text_9">
      <!-- 3 -->
      <g transform="translate(78.289814 193.405925) scale(0.08 -0.08)">
       <use xlink:href="#ArialMT-33"/>
      </g>
     </g>
    </g>
    <g id="xtick_13">
     <g id="line2d_17">
      <g>
       <use xlink:href="#mcb447051e7" x="90.267755" y="180.679675" style="stroke: #000000; stroke-width: 0.8"/>
      </g>
     </g>
     <g id="text_10">
      <!-- 4 -->
      <g transform="translate(88.04338 193.405925) scale(0.08 -0.08)">
       <defs>
        <path id="ArialMT-34" d="M 2069 0 
L 2069 1097 
L 81 1097 
L 81 1613 
L 2172 4581 
L 2631 4581 
L 2631 1613 
L 3250 1613 
L 3250 1097 
L 2631 1097 
L 2631 0 
L 2069 0 
z
M 2069 1613 
L 2069 3678 
L 634 1613 
L 2069 1613 
z
" transform="scale(0.015625)"/>
       </defs>
       <use xlink:href="#ArialMT-34"/>
      </g>
     </g>
    </g>
    <g id="xtick_14">
     <g id="line2d_18">
      <g>
       <use xlink:href="#mcb447051e7" x="100.021321" y="180.679675" style="stroke: #000000; stroke-width: 0.8"/>
      </g>
     </g>
     <g id="text_11">
      <!-- 5 -->
      <g transform="translate(97.796946 193.405925) scale(0.08 -0.08)">
       <defs>
        <path id="ArialMT-35" d="M 266 1200 
L 856 1250 
Q 922 819 1161 601 
Q 1400 384 1738 384 
Q 2144 384 2425 690 
Q 2706 997 2706 1503 
Q 2706 1984 2436 2262 
Q 2166 2541 1728 2541 
Q 1456 2541 1237 2417 
Q 1019 2294 894 2097 
L 366 2166 
L 809 4519 
L 3088 4519 
L 3088 3981 
L 1259 3981 
L 1013 2750 
Q 1425 3038 1878 3038 
Q 2478 3038 2890 2622 
Q 3303 2206 3303 1553 
Q 3303 931 2941 478 
Q 2500 -78 1738 -78 
Q 1113 -78 717 272 
Q 322 622 266 1200 
z
" transform="scale(0.015625)"/>
       </defs>
       <use xlink:href="#ArialMT-35"/>
      </g>
     </g>
    </g>
    <g id="xtick_15">
     <g id="line2d_19">
      <g>
       <use xlink:href="#mcb447051e7" x="109.774887" y="180.679675" style="stroke: #000000; stroke-width: 0.8"/>
      </g>
     </g>
     <g id="text_12">
      <!-- 6 -->
      <g transform="translate(107.550512 193.405925) scale(0.08 -0.08)">
       <defs>
        <path id="ArialMT-36" d="M 3184 3459 
L 2625 3416 
Q 2550 3747 2413 3897 
Q 2184 4138 1850 4138 
Q 1581 4138 1378 3988 
Q 1113 3794 959 3422 
Q 806 3050 800 2363 
Q 1003 2672 1297 2822 
Q 1591 2972 1913 2972 
Q 2475 2972 2870 2558 
Q 3266 2144 3266 1488 
Q 3266 1056 3080 686 
Q 2894 316 2569 119 
Q 2244 -78 1831 -78 
Q 1128 -78 684 439 
Q 241 956 241 2144 
Q 241 3472 731 4075 
Q 1159 4600 1884 4600 
Q 2425 4600 2770 4297 
Q 3116 3994 3184 3459 
z
M 888 1484 
Q 888 1194 1011 928 
Q 1134 663 1356 523 
Q 1578 384 1822 384 
Q 2178 384 2434 671 
Q 2691 959 2691 1453 
Q 2691 1928 2437 2201 
Q 2184 2475 1800 2475 
Q 1419 2475 1153 2201 
Q 888 1928 888 1484 
z
" transform="scale(0.015625)"/>
       </defs>
       <use xlink:href="#ArialMT-36"/>
      </g>
     </g>
    </g>
    <g id="xtick_16">
     <g id="line2d_20">
      <g>
       <use xlink:href="#mcb447051e7" x="119.528453" y="180.679675" style="stroke: #000000; stroke-width: 0.8"/>
      </g>
     </g>
     <g id="text_13">
      <!-- 7 -->
      <g transform="translate(117.304078 193.405925) scale(0.08 -0.08)">
       <defs>
        <path id="ArialMT-37" d="M 303 3981 
L 303 4522 
L 3269 4522 
L 3269 4084 
Q 2831 3619 2401 2847 
Q 1972 2075 1738 1259 
Q 1569 684 1522 0 
L 944 0 
Q 953 541 1156 1306 
Q 1359 2072 1739 2783 
Q 2119 3494 2547 3981 
L 303 3981 
z
" transform="scale(0.015625)"/>
       </defs>
       <use xlink:href="#ArialMT-37"/>
      </g>
     </g>
    </g>
    <g id="xtick_17">
     <g id="line2d_21">
      <g>
       <use xlink:href="#mcb447051e7" x="129.282018" y="180.679675" style="stroke: #000000; stroke-width: 0.8"/>
      </g>
     </g>
     <g id="text_14">
      <!-- 8 -->
      <g transform="translate(127.057643 193.405925) scale(0.08 -0.08)">
       <defs>
        <path id="ArialMT-38" d="M 1131 2484 
Q 781 2613 612 2850 
Q 444 3088 444 3419 
Q 444 3919 803 4259 
Q 1163 4600 1759 4600 
Q 2359 4600 2725 4251 
Q 3091 3903 3091 3403 
Q 3091 3084 2923 2848 
Q 2756 2613 2416 2484 
Q 2838 2347 3058 2040 
Q 3278 1734 3278 1309 
Q 3278 722 2862 322 
Q 2447 -78 1769 -78 
Q 1091 -78 675 323 
Q 259 725 259 1325 
Q 259 1772 486 2073 
Q 713 2375 1131 2484 
z
M 1019 3438 
Q 1019 3113 1228 2906 
Q 1438 2700 1772 2700 
Q 2097 2700 2305 2904 
Q 2513 3109 2513 3406 
Q 2513 3716 2298 3927 
Q 2084 4138 1766 4138 
Q 1444 4138 1231 3931 
Q 1019 3725 1019 3438 
z
M 838 1322 
Q 838 1081 952 856 
Q 1066 631 1291 507 
Q 1516 384 1775 384 
Q 2178 384 2440 643 
Q 2703 903 2703 1303 
Q 2703 1709 2433 1975 
Q 2163 2241 1756 2241 
Q 1359 2241 1098 1978 
Q 838 1716 838 1322 
z
" transform="scale(0.015625)"/>
       </defs>
       <use xlink:href="#ArialMT-38"/>
      </g>
     </g>
    </g>
    <g id="xtick_18">
     <g id="line2d_22">
      <g>
       <use xlink:href="#mcb447051e7" x="139.035584" y="180.679675" style="stroke: #000000; stroke-width: 0.8"/>
      </g>
     </g>
     <g id="text_15">
      <!-- 9 -->
      <g transform="translate(136.811209 193.405925) scale(0.08 -0.08)">
       <defs>
        <path id="ArialMT-39" d="M 350 1059 
L 891 1109 
Q 959 728 1153 556 
Q 1347 384 1650 384 
Q 1909 384 2104 503 
Q 2300 622 2425 820 
Q 2550 1019 2634 1356 
Q 2719 1694 2719 2044 
Q 2719 2081 2716 2156 
Q 2547 1888 2255 1720 
Q 1963 1553 1622 1553 
Q 1053 1553 659 1965 
Q 266 2378 266 3053 
Q 266 3750 677 4175 
Q 1088 4600 1706 4600 
Q 2153 4600 2523 4359 
Q 2894 4119 3086 3673 
Q 3278 3228 3278 2384 
Q 3278 1506 3087 986 
Q 2897 466 2520 194 
Q 2144 -78 1638 -78 
Q 1100 -78 759 220 
Q 419 519 350 1059 
z
M 2653 3081 
Q 2653 3566 2395 3850 
Q 2138 4134 1775 4134 
Q 1400 4134 1122 3828 
Q 844 3522 844 3034 
Q 844 2597 1108 2323 
Q 1372 2050 1759 2050 
Q 2150 2050 2401 2323 
Q 2653 2597 2653 3081 
z
" transform="scale(0.015625)"/>
       </defs>
       <use xlink:href="#ArialMT-39"/>
      </g>
     </g>
    </g>
    <g id="text_16">
     <!-- energy level index -->
     <g transform="translate(59.721321 206.153737) scale(0.1 -0.1)">
      <defs>
       <path id="ArialMT-64" d="M 2575 0 
L 2575 419 
Q 2259 -75 1647 -75 
Q 1250 -75 917 144 
Q 584 363 401 755 
Q 219 1147 219 1656 
Q 219 2153 384 2558 
Q 550 2963 881 3178 
Q 1213 3394 1622 3394 
Q 1922 3394 2156 3267 
Q 2391 3141 2538 2938 
L 2538 4581 
L 3097 4581 
L 3097 0 
L 2575 0 
z
M 797 1656 
Q 797 1019 1065 703 
Q 1334 388 1700 388 
Q 2069 388 2326 689 
Q 2584 991 2584 1609 
Q 2584 2291 2321 2609 
Q 2059 2928 1675 2928 
Q 1300 2928 1048 2622 
Q 797 2316 797 1656 
z
" transform="scale(0.015625)"/>
      </defs>
      <use xlink:href="#ArialMT-65"/>
      <use xlink:href="#ArialMT-6e" transform="translate(55.615234 0)"/>
      <use xlink:href="#ArialMT-65" transform="translate(111.230469 0)"/>
      <use xlink:href="#ArialMT-72" transform="translate(166.845703 0)"/>
      <use xlink:href="#ArialMT-67" transform="translate(200.146484 0)"/>
      <use xlink:href="#ArialMT-79" transform="translate(255.761719 0)"/>
      <use xlink:href="#ArialMT-20" transform="translate(305.761719 0)"/>
      <use xlink:href="#ArialMT-6c" transform="translate(333.544922 0)"/>
      <use xlink:href="#ArialMT-65" transform="translate(355.761719 0)"/>
      <use xlink:href="#ArialMT-76" transform="translate(411.376953 0)"/>
      <use xlink:href="#ArialMT-65" transform="translate(461.376953 0)"/>
      <use xlink:href="#ArialMT-6c" transform="translate(516.992188 0)"/>
      <use xlink:href="#ArialMT-20" transform="translate(539.208984 0)"/>
      <use xlink:href="#ArialMT-69" transform="translate(566.992188 0)"/>
      <use xlink:href="#ArialMT-6e" transform="translate(589.208984 0)"/>
      <use xlink:href="#ArialMT-64" transform="translate(644.824219 0)"/>
      <use xlink:href="#ArialMT-65" transform="translate(700.439453 0)"/>
      <use xlink:href="#ArialMT-78" transform="translate(756.054688 0)"/>
     </g>
    </g>
   </g>
   <g id="matplotlib.axis_4">
    <g id="ytick_5">
     <g id="line2d_23">
      <g>
       <use xlink:href="#mf30da48819" x="52.814063" y="152.950516" style="stroke: #000000; stroke-width: 0.8"/>
      </g>
     </g>
     <g id="text_17">
      <!-- 0.0 -->
      <g transform="translate(34.694063 155.813641) scale(0.08 -0.08)">
       <use xlink:href="#ArialMT-30"/>
       <use xlink:href="#ArialMT-2e" transform="translate(55.615234 0)"/>
       <use xlink:href="#ArialMT-30" transform="translate(83.398438 0)"/>
      </g>
     </g>
    </g>
    <g id="ytick_6">
     <g id="line2d_24">
      <g>
       <use xlink:href="#mf30da48819" x="52.814063" y="122.14034" style="stroke: #000000; stroke-width: 0.8"/>
      </g>
     </g>
     <g id="text_18">
      <!-- 0.5 -->
      <g transform="translate(34.694063 125.003465) scale(0.08 -0.08)">
       <use xlink:href="#ArialMT-30"/>
       <use xlink:href="#ArialMT-2e" transform="translate(55.615234 0)"/>
       <use xlink:href="#ArialMT-35" transform="translate(83.398438 0)"/>
      </g>
     </g>
    </g>
    <g id="text_19">
     <!-- $\frac{\partial}{\partial\tau} \left[D_{KL}(\hat{q}_{\tau} || p_T)\right]_{\tau=1}$ -->
     <g transform="translate(15.8 182.166955) rotate(-90) scale(0.1 -0.1)">
      <defs>
       <path id="STIXGeneral-Regular-2202" d="M 1248 4000 
L 1184 4128 
Q 1427 4275 1811 4275 
Q 3014 4275 3014 2611 
Q 3014 2298 2963 1965 
Q 2912 1632 2777 1261 
Q 2643 890 2438 598 
Q 2234 307 1894 118 
Q 1555 -70 1126 -70 
Q 685 -70 470 224 
Q 256 518 256 966 
Q 256 1664 739 2224 
Q 1222 2784 1901 2784 
Q 2342 2784 2515 2477 
Q 2560 2726 2560 2925 
Q 2560 3418 2365 3750 
Q 2170 4083 1722 4083 
Q 1510 4083 1248 4000 
z
M 2349 2042 
Q 2349 2323 2230 2457 
Q 2112 2592 1958 2592 
Q 1491 2592 1132 2013 
Q 774 1434 774 749 
Q 774 122 1203 122 
Q 1549 122 1827 499 
Q 2106 877 2253 1414 
Q 2349 1766 2349 2042 
z
" transform="scale(0.015625)"/>
       <path id="Cmr10-5b" d="M 756 -1600 
L 756 4800 
L 1631 4800 
L 1631 4544 
L 1013 4544 
L 1013 -1344 
L 1631 -1344 
L 1631 -1600 
L 756 -1600 
z
" transform="scale(0.015625)"/>
       <path id="Cmr10-5d" d="M 141 -1600 
L 141 -1344 
L 763 -1344 
L 763 4544 
L 141 4544 
L 141 4800 
L 1019 4800 
L 1019 -1600 
L 141 -1600 
z
" transform="scale(0.015625)"/>
      </defs>
      <use xlink:href="#STIXGeneral-Regular-2202" transform="translate(15 39.242188) scale(0.7)"/>
      <use xlink:href="#STIXGeneral-Regular-2202" transform="translate(0 -39.53125) scale(0.7)"/>
      <use xlink:href="#Cmmi10-bf" transform="translate(32.969994 -39.53125) scale(0.7)"/>
      <use xlink:href="#Cmr10-5b" transform="translate(76.060814 0.976562)"/>
      <use xlink:href="#Cmmi10-44" transform="translate(103.746361 0.976562)"/>
      <use xlink:href="#Cmmi10-4b" transform="translate(186.461205 -16.029687) scale(0.7)"/>
      <use xlink:href="#Cmmi10-4c" transform="translate(245.899681 -16.029687) scale(0.7)"/>
      <use xlink:href="#Cmr10-28" transform="translate(299.88933 0.976562)"/>
      <use xlink:href="#Cmr10-5e" transform="translate(341.321458 3.851562)"/>
      <use xlink:href="#Cmmi10-71" transform="translate(338.707689 0.976562)"/>
      <use xlink:href="#Cmmi10-bf" transform="translate(387.751908 -16.029687) scale(0.7)"/>
      <use xlink:href="#Cmsy10-6a" transform="translate(424.720072 0.976562)"/>
      <use xlink:href="#Cmsy10-6a" transform="translate(452.405619 0.976562)"/>
      <use xlink:href="#Cmmi10-70" transform="translate(480.091165 0.976562)"/>
      <use xlink:href="#Cmmi10-54" transform="translate(530.384134 -16.029687) scale(0.7)"/>
      <use xlink:href="#Cmr10-29" transform="translate(577.640384 0.976562)"/>
      <use xlink:href="#Cmr10-5d" transform="translate(616.458744 0.976562)"/>
      <use xlink:href="#Cmmi10-bf" transform="translate(648.608431 -16.029687) scale(0.7)"/>
      <use xlink:href="#Cmr10-3d" transform="translate(691.490267 -16.029687) scale(0.7)"/>
      <use xlink:href="#Cmr10-31" transform="translate(758.161165 -16.029687) scale(0.7)"/>
      <path d="M 0 13.476562 
L 0 19.726562 
L 63.560814 19.726562 
L 63.560814 13.476562 
L 0 13.476562 
z
"/>
     </g>
     <!-- per energy level -->
     <g transform="translate(28.589375 177.740392) rotate(-90) scale(0.1 -0.1)">
      <use xlink:href="#ArialMT-70"/>
      <use xlink:href="#ArialMT-65" transform="translate(55.615234 0)"/>
      <use xlink:href="#ArialMT-72" transform="translate(111.230469 0)"/>
      <use xlink:href="#ArialMT-20" transform="translate(144.53125 0)"/>
      <use xlink:href="#ArialMT-65" transform="translate(172.314453 0)"/>
      <use xlink:href="#ArialMT-6e" transform="translate(227.929688 0)"/>
      <use xlink:href="#ArialMT-65" transform="translate(283.544922 0)"/>
      <use xlink:href="#ArialMT-72" transform="translate(339.160156 0)"/>
      <use xlink:href="#ArialMT-67" transform="translate(372.460938 0)"/>
      <use xlink:href="#ArialMT-79" transform="translate(428.076172 0)"/>
      <use xlink:href="#ArialMT-20" transform="translate(478.076172 0)"/>
      <use xlink:href="#ArialMT-6c" transform="translate(505.859375 0)"/>
      <use xlink:href="#ArialMT-65" transform="translate(528.076172 0)"/>
      <use xlink:href="#ArialMT-76" transform="translate(583.691406 0)"/>
      <use xlink:href="#ArialMT-65" transform="translate(633.691406 0)"/>
      <use xlink:href="#ArialMT-6c" transform="translate(689.306641 0)"/>
     </g>
    </g>
   </g>
   <g id="patch_26">
    <path d="M 52.814063 180.679675 
L 52.814063 103.654234 
" style="fill: none; stroke: #000000; stroke-width: 0.8; stroke-linejoin: miter; stroke-linecap: square"/>
   </g>
   <g id="patch_27">
    <path d="M 147.228579 180.679675 
L 147.228579 103.654234 
" style="fill: none; stroke: #000000; stroke-width: 0.8; stroke-linejoin: miter; stroke-linecap: square"/>
   </g>
   <g id="patch_28">
    <path d="M 52.814063 180.679675 
L 147.228579 180.679675 
" style="fill: none; stroke: #000000; stroke-width: 0.8; stroke-linejoin: miter; stroke-linecap: square"/>
   </g>
   <g id="patch_29">
    <path d="M 52.814063 103.654234 
L 147.228579 103.654234 
" style="fill: none; stroke: #000000; stroke-width: 0.8; stroke-linejoin: miter; stroke-linecap: square"/>
   </g>
  </g>
  <g id="axes_3">
   <g id="patch_30">
    <path d="M 156.670031 95.95169 
L 251.084548 95.95169 
L 251.084548 18.92625 
L 156.670031 18.92625 
z
" style="fill: #ffffff"/>
   </g>
   <g id="patch_31">
    <path d="M 160.9616 91.788153 
L 168.764453 91.788153 
L 168.764453 82.402522 
L 160.9616 82.402522 
z
" clip-path="url(#p8ef5eff788)"/>
   </g>
   <g id="patch_32">
    <path d="M 170.715166 91.788153 
L 178.518019 91.788153 
L 178.518019 86.459451 
L 170.715166 86.459451 
z
" clip-path="url(#p8ef5eff788)"/>
   </g>
   <g id="patch_33">
    <path d="M 180.468732 91.788153 
L 188.271584 91.788153 
L 188.271584 67.680809 
L 180.468732 67.680809 
z
" clip-path="url(#p8ef5eff788)"/>
   </g>
   <g id="patch_34">
    <path d="M 190.222298 91.788153 
L 198.02515 91.788153 
L 198.02515 60.443361 
L 190.222298 60.443361 
z
" clip-path="url(#p8ef5eff788)"/>
   </g>
   <g id="patch_35">
    <path d="M 199.975863 91.788153 
L 207.778716 91.788153 
L 207.778716 38.164717 
L 199.975863 38.164717 
z
" clip-path="url(#p8ef5eff788)"/>
   </g>
   <g id="patch_36">
    <path d="M 209.729429 91.788153 
L 217.532282 91.788153 
L 217.532282 31.559512 
L 209.729429 31.559512 
z
" clip-path="url(#p8ef5eff788)"/>
   </g>
   <g id="patch_37">
    <path d="M 219.482995 91.788153 
L 227.285848 91.788153 
L 227.285848 46.246482 
L 219.482995 46.246482 
z
" clip-path="url(#p8ef5eff788)"/>
   </g>
   <g id="patch_38">
    <path d="M 229.236561 91.788153 
L 237.039413 91.788153 
L 237.039413 77.372811 
L 229.236561 77.372811 
z
" clip-path="url(#p8ef5eff788)"/>
   </g>
   <g id="patch_39">
    <path d="M 238.990127 91.788153 
L 246.792979 91.788153 
L 246.792979 88.636036 
L 238.990127 88.636036 
z
" clip-path="url(#p8ef5eff788)"/>
   </g>
   <g id="matplotlib.axis_5">
    <g id="xtick_19">
     <g id="line2d_25">
      <g>
       <use xlink:href="#mcb447051e7" x="164.863026" y="95.95169" style="stroke: #000000; stroke-width: 0.8"/>
      </g>
     </g>
    </g>
    <g id="xtick_20">
     <g id="line2d_26">
      <g>
       <use xlink:href="#mcb447051e7" x="174.616592" y="95.95169" style="stroke: #000000; stroke-width: 0.8"/>
      </g>
     </g>
    </g>
    <g id="xtick_21">
     <g id="line2d_27">
      <g>
       <use xlink:href="#mcb447051e7" x="184.370158" y="95.95169" style="stroke: #000000; stroke-width: 0.8"/>
      </g>
     </g>
    </g>
    <g id="xtick_22">
     <g id="line2d_28">
      <g>
       <use xlink:href="#mcb447051e7" x="194.123724" y="95.95169" style="stroke: #000000; stroke-width: 0.8"/>
      </g>
     </g>
    </g>
    <g id="xtick_23">
     <g id="line2d_29">
      <g>
       <use xlink:href="#mcb447051e7" x="203.87729" y="95.95169" style="stroke: #000000; stroke-width: 0.8"/>
      </g>
     </g>
    </g>
    <g id="xtick_24">
     <g id="line2d_30">
      <g>
       <use xlink:href="#mcb447051e7" x="213.630855" y="95.95169" style="stroke: #000000; stroke-width: 0.8"/>
      </g>
     </g>
    </g>
    <g id="xtick_25">
     <g id="line2d_31">
      <g>
       <use xlink:href="#mcb447051e7" x="223.384421" y="95.95169" style="stroke: #000000; stroke-width: 0.8"/>
      </g>
     </g>
    </g>
    <g id="xtick_26">
     <g id="line2d_32">
      <g>
       <use xlink:href="#mcb447051e7" x="233.137987" y="95.95169" style="stroke: #000000; stroke-width: 0.8"/>
      </g>
     </g>
    </g>
    <g id="xtick_27">
     <g id="line2d_33">
      <g>
       <use xlink:href="#mcb447051e7" x="242.891553" y="95.95169" style="stroke: #000000; stroke-width: 0.8"/>
      </g>
     </g>
    </g>
   </g>
   <g id="matplotlib.axis_6">
    <g id="ytick_7">
     <g id="line2d_34">
      <g>
       <use xlink:href="#mf30da48819" x="156.670031" y="91.788153" style="stroke: #000000; stroke-width: 0.8"/>
      </g>
     </g>
    </g>
    <g id="ytick_8">
     <g id="line2d_35">
      <g>
       <use xlink:href="#mf30da48819" x="156.670031" y="70.970466" style="stroke: #000000; stroke-width: 0.8"/>
      </g>
     </g>
    </g>
    <g id="ytick_9">
     <g id="line2d_36">
      <g>
       <use xlink:href="#mf30da48819" x="156.670031" y="50.15278" style="stroke: #000000; stroke-width: 0.8"/>
      </g>
     </g>
    </g>
    <g id="ytick_10">
     <g id="line2d_37">
      <g>
       <use xlink:href="#mf30da48819" x="156.670031" y="29.335093" style="stroke: #000000; stroke-width: 0.8"/>
      </g>
     </g>
    </g>
   </g>
   <g id="patch_40">
    <path d="M 156.670031 95.95169 
L 156.670031 18.92625 
" style="fill: none; stroke: #000000; stroke-width: 0.8; stroke-linejoin: miter; stroke-linecap: square"/>
   </g>
   <g id="patch_41">
    <path d="M 251.084548 95.95169 
L 251.084548 18.92625 
" style="fill: none; stroke: #000000; stroke-width: 0.8; stroke-linejoin: miter; stroke-linecap: square"/>
   </g>
   <g id="patch_42">
    <path d="M 156.670031 95.95169 
L 251.084548 95.95169 
" style="fill: none; stroke: #000000; stroke-width: 0.8; stroke-linejoin: miter; stroke-linecap: square"/>
   </g>
   <g id="patch_43">
    <path d="M 156.670031 18.92625 
L 251.084548 18.92625 
" style="fill: none; stroke: #000000; stroke-width: 0.8; stroke-linejoin: miter; stroke-linecap: square"/>
   </g>
   <g id="text_20">
    <!-- high T experiment -->
    <g transform="translate(172.004165 12.92625) scale(0.08 -0.08)">
     <defs>
      <path id="ArialMT-68" d="M 422 0 
L 422 4581 
L 984 4581 
L 984 2938 
Q 1378 3394 1978 3394 
Q 2347 3394 2619 3248 
Q 2891 3103 3008 2847 
Q 3125 2591 3125 2103 
L 3125 0 
L 2563 0 
L 2563 2103 
Q 2563 2525 2380 2717 
Q 2197 2909 1863 2909 
Q 1613 2909 1392 2779 
Q 1172 2650 1078 2428 
Q 984 2206 984 1816 
L 984 0 
L 422 0 
z
" transform="scale(0.015625)"/>
     </defs>
     <use xlink:href="#ArialMT-68"/>
     <use xlink:href="#ArialMT-69" transform="translate(55.615234 0)"/>
     <use xlink:href="#ArialMT-67" transform="translate(77.832031 0)"/>
     <use xlink:href="#ArialMT-68" transform="translate(133.447266 0)"/>
     <use xlink:href="#ArialMT-20" transform="translate(189.0625 0)"/>
     <use xlink:href="#ArialMT-54" transform="translate(215.095703 0)"/>
     <use xlink:href="#ArialMT-20" transform="translate(274.429688 0)"/>
     <use xlink:href="#ArialMT-65" transform="translate(302.212891 0)"/>
     <use xlink:href="#ArialMT-78" transform="translate(357.828125 0)"/>
     <use xlink:href="#ArialMT-70" transform="translate(407.828125 0)"/>
     <use xlink:href="#ArialMT-65" transform="translate(463.443359 0)"/>
     <use xlink:href="#ArialMT-72" transform="translate(519.058594 0)"/>
     <use xlink:href="#ArialMT-69" transform="translate(552.359375 0)"/>
     <use xlink:href="#ArialMT-6d" transform="translate(574.576172 0)"/>
     <use xlink:href="#ArialMT-65" transform="translate(657.876953 0)"/>
     <use xlink:href="#ArialMT-6e" transform="translate(713.492188 0)"/>
     <use xlink:href="#ArialMT-74" transform="translate(769.107422 0)"/>
    </g>
   </g>
  </g>
  <g id="axes_4">
   <g id="patch_44">
    <path d="M 156.670031 180.679675 
L 251.084548 180.679675 
L 251.084548 103.654234 
L 156.670031 103.654234 
z
" style="fill: #ffffff"/>
   </g>
   <g id="patch_45">
    <path d="M 160.9616 152.950516 
L 168.764453 152.950516 
L 168.764453 146.90188 
L 160.9616 146.90188 
z
" clip-path="url(#p3a469bb12b)"/>
   </g>
   <g id="patch_46">
    <path d="M 170.715166 152.950516 
L 178.518019 152.950516 
L 178.518019 153.416279 
L 170.715166 153.416279 
z
" clip-path="url(#p3a469bb12b)"/>
   </g>
   <g id="patch_47">
    <path d="M 180.468732 152.950516 
L 188.271584 152.950516 
L 188.271584 161.523606 
L 180.468732 161.523606 
z
" clip-path="url(#p3a469bb12b)"/>
   </g>
   <g id="patch_48">
    <path d="M 190.222298 152.950516 
L 198.02515 152.950516 
L 198.02515 166.733238 
L 190.222298 166.733238 
z
" clip-path="url(#p3a469bb12b)"/>
   </g>
   <g id="patch_49">
    <path d="M 199.975863 152.950516 
L 207.778716 152.950516 
L 207.778716 176.527872 
L 199.975863 176.527872 
z
" clip-path="url(#p3a469bb12b)"/>
   </g>
   <g id="patch_50">
    <path d="M 209.729429 152.950516 
L 217.532282 152.950516 
L 217.532282 172.363924 
L 209.729429 172.363924 
z
" clip-path="url(#p3a469bb12b)"/>
   </g>
   <g id="patch_51">
    <path d="M 219.482995 152.950516 
L 227.285848 152.950516 
L 227.285848 161.203205 
L 219.482995 161.203205 
z
" clip-path="url(#p3a469bb12b)"/>
   </g>
   <g id="patch_52">
    <path d="M 229.236561 152.950516 
L 237.039413 152.950516 
L 237.039413 153.346965 
L 229.236561 153.346965 
z
" clip-path="url(#p3a469bb12b)"/>
   </g>
   <g id="patch_53">
    <path d="M 238.990127 152.950516 
L 246.792979 152.950516 
L 246.792979 152.567566 
L 238.990127 152.567566 
z
" clip-path="url(#p3a469bb12b)"/>
   </g>
   <g id="matplotlib.axis_7">
    <g id="xtick_28">
     <g id="line2d_38">
      <g>
       <use xlink:href="#mcb447051e7" x="164.863026" y="180.679675" style="stroke: #000000; stroke-width: 0.8"/>
      </g>
     </g>
     <g id="text_21">
      <!-- 1 -->
      <g transform="translate(162.638651 193.405925) scale(0.08 -0.08)">
       <use xlink:href="#ArialMT-31"/>
      </g>
     </g>
    </g>
    <g id="xtick_29">
     <g id="line2d_39">
      <g>
       <use xlink:href="#mcb447051e7" x="174.616592" y="180.679675" style="stroke: #000000; stroke-width: 0.8"/>
      </g>
     </g>
     <g id="text_22">
      <!-- 2 -->
      <g transform="translate(172.392217 193.405925) scale(0.08 -0.08)">
       <use xlink:href="#ArialMT-32"/>
      </g>
     </g>
    </g>
    <g id="xtick_30">
     <g id="line2d_40">
      <g>
       <use xlink:href="#mcb447051e7" x="184.370158" y="180.679675" style="stroke: #000000; stroke-width: 0.8"/>
      </g>
     </g>
     <g id="text_23">
      <!-- 3 -->
      <g transform="translate(182.145783 193.405925) scale(0.08 -0.08)">
       <use xlink:href="#ArialMT-33"/>
      </g>
     </g>
    </g>
    <g id="xtick_31">
     <g id="line2d_41">
      <g>
       <use xlink:href="#mcb447051e7" x="194.123724" y="180.679675" style="stroke: #000000; stroke-width: 0.8"/>
      </g>
     </g>
     <g id="text_24">
      <!-- 4 -->
      <g transform="translate(191.899349 193.405925) scale(0.08 -0.08)">
       <use xlink:href="#ArialMT-34"/>
      </g>
     </g>
    </g>
    <g id="xtick_32">
     <g id="line2d_42">
      <g>
       <use xlink:href="#mcb447051e7" x="203.87729" y="180.679675" style="stroke: #000000; stroke-width: 0.8"/>
      </g>
     </g>
     <g id="text_25">
      <!-- 5 -->
      <g transform="translate(201.652915 193.405925) scale(0.08 -0.08)">
       <use xlink:href="#ArialMT-35"/>
      </g>
     </g>
    </g>
    <g id="xtick_33">
     <g id="line2d_43">
      <g>
       <use xlink:href="#mcb447051e7" x="213.630855" y="180.679675" style="stroke: #000000; stroke-width: 0.8"/>
      </g>
     </g>
     <g id="text_26">
      <!-- 6 -->
      <g transform="translate(211.40648 193.405925) scale(0.08 -0.08)">
       <use xlink:href="#ArialMT-36"/>
      </g>
     </g>
    </g>
    <g id="xtick_34">
     <g id="line2d_44">
      <g>
       <use xlink:href="#mcb447051e7" x="223.384421" y="180.679675" style="stroke: #000000; stroke-width: 0.8"/>
      </g>
     </g>
     <g id="text_27">
      <!-- 7 -->
      <g transform="translate(221.160046 193.405925) scale(0.08 -0.08)">
       <use xlink:href="#ArialMT-37"/>
      </g>
     </g>
    </g>
    <g id="xtick_35">
     <g id="line2d_45">
      <g>
       <use xlink:href="#mcb447051e7" x="233.137987" y="180.679675" style="stroke: #000000; stroke-width: 0.8"/>
      </g>
     </g>
     <g id="text_28">
      <!-- 8 -->
      <g transform="translate(230.913612 193.405925) scale(0.08 -0.08)">
       <use xlink:href="#ArialMT-38"/>
      </g>
     </g>
    </g>
    <g id="xtick_36">
     <g id="line2d_46">
      <g>
       <use xlink:href="#mcb447051e7" x="242.891553" y="180.679675" style="stroke: #000000; stroke-width: 0.8"/>
      </g>
     </g>
     <g id="text_29">
      <!-- 9 -->
      <g transform="translate(240.667178 193.405925) scale(0.08 -0.08)">
       <use xlink:href="#ArialMT-39"/>
      </g>
     </g>
    </g>
    <g id="text_30">
     <!-- energy level index -->
     <g transform="translate(163.57729 206.153737) scale(0.1 -0.1)">
      <use xlink:href="#ArialMT-65"/>
      <use xlink:href="#ArialMT-6e" transform="translate(55.615234 0)"/>
      <use xlink:href="#ArialMT-65" transform="translate(111.230469 0)"/>
      <use xlink:href="#ArialMT-72" transform="translate(166.845703 0)"/>
      <use xlink:href="#ArialMT-67" transform="translate(200.146484 0)"/>
      <use xlink:href="#ArialMT-79" transform="translate(255.761719 0)"/>
      <use xlink:href="#ArialMT-20" transform="translate(305.761719 0)"/>
      <use xlink:href="#ArialMT-6c" transform="translate(333.544922 0)"/>
      <use xlink:href="#ArialMT-65" transform="translate(355.761719 0)"/>
      <use xlink:href="#ArialMT-76" transform="translate(411.376953 0)"/>
      <use xlink:href="#ArialMT-65" transform="translate(461.376953 0)"/>
      <use xlink:href="#ArialMT-6c" transform="translate(516.992188 0)"/>
      <use xlink:href="#ArialMT-20" transform="translate(539.208984 0)"/>
      <use xlink:href="#ArialMT-69" transform="translate(566.992188 0)"/>
      <use xlink:href="#ArialMT-6e" transform="translate(589.208984 0)"/>
      <use xlink:href="#ArialMT-64" transform="translate(644.824219 0)"/>
      <use xlink:href="#ArialMT-65" transform="translate(700.439453 0)"/>
      <use xlink:href="#ArialMT-78" transform="translate(756.054688 0)"/>
     </g>
    </g>
   </g>
   <g id="matplotlib.axis_8">
    <g id="ytick_11">
     <g id="line2d_47">
      <g>
       <use xlink:href="#mf30da48819" x="156.670031" y="152.950516" style="stroke: #000000; stroke-width: 0.8"/>
      </g>
     </g>
    </g>
    <g id="ytick_12">
     <g id="line2d_48">
      <g>
       <use xlink:href="#mf30da48819" x="156.670031" y="122.14034" style="stroke: #000000; stroke-width: 0.8"/>
      </g>
     </g>
    </g>
   </g>
   <g id="patch_54">
    <path d="M 156.670031 180.679675 
L 156.670031 103.654234 
" style="fill: none; stroke: #000000; stroke-width: 0.8; stroke-linejoin: miter; stroke-linecap: square"/>
   </g>
   <g id="patch_55">
    <path d="M 251.084548 180.679675 
L 251.084548 103.654234 
" style="fill: none; stroke: #000000; stroke-width: 0.8; stroke-linejoin: miter; stroke-linecap: square"/>
   </g>
   <g id="patch_56">
    <path d="M 156.670031 180.679675 
L 251.084548 180.679675 
" style="fill: none; stroke: #000000; stroke-width: 0.8; stroke-linejoin: miter; stroke-linecap: square"/>
   </g>
   <g id="patch_57">
    <path d="M 156.670031 103.654234 
L 251.084548 103.654234 
" style="fill: none; stroke: #000000; stroke-width: 0.8; stroke-linejoin: miter; stroke-linecap: square"/>
   </g>
  </g>
  <g id="axes_5">
   <g id="patch_58">
    <path d="M 36.883801 298.318529 
L 251.084548 298.318529 
L 251.084548 218.912302 
L 36.883801 218.912302 
z
" style="fill: #ffffff"/>
   </g>
   <g id="matplotlib.axis_9">
    <g id="xtick_37">
     <g id="line2d_49">
      <g>
       <use xlink:href="#mcb447051e7" x="46.620199" y="298.318529" style="stroke: #000000; stroke-width: 0.8"/>
      </g>
     </g>
     <g id="text_31">
      <!-- 2.0 -->
      <g transform="translate(41.060199 311.044779) scale(0.08 -0.08)">
       <use xlink:href="#ArialMT-32"/>
       <use xlink:href="#ArialMT-2e" transform="translate(55.615234 0)"/>
       <use xlink:href="#ArialMT-30" transform="translate(83.398438 0)"/>
      </g>
     </g>
    </g>
    <g id="xtick_38">
     <g id="line2d_50">
      <g>
       <use xlink:href="#mcb447051e7" x="79.074857" y="298.318529" style="stroke: #000000; stroke-width: 0.8"/>
      </g>
     </g>
     <g id="text_32">
      <!-- 2.5 -->
      <g transform="translate(73.514857 311.044779) scale(0.08 -0.08)">
       <use xlink:href="#ArialMT-32"/>
       <use xlink:href="#ArialMT-2e" transform="translate(55.615234 0)"/>
       <use xlink:href="#ArialMT-35" transform="translate(83.398438 0)"/>
      </g>
     </g>
    </g>
    <g id="xtick_39">
     <g id="line2d_51">
      <g>
       <use xlink:href="#mcb447051e7" x="111.529516" y="298.318529" style="stroke: #000000; stroke-width: 0.8"/>
      </g>
     </g>
     <g id="text_33">
      <!-- 3.0 -->
      <g transform="translate(105.969516 311.044779) scale(0.08 -0.08)">
       <use xlink:href="#ArialMT-33"/>
       <use xlink:href="#ArialMT-2e" transform="translate(55.615234 0)"/>
       <use xlink:href="#ArialMT-30" transform="translate(83.398438 0)"/>
      </g>
     </g>
    </g>
    <g id="xtick_40">
     <g id="line2d_52">
      <g>
       <use xlink:href="#mcb447051e7" x="143.984175" y="298.318529" style="stroke: #000000; stroke-width: 0.8"/>
      </g>
     </g>
     <g id="text_34">
      <!-- 3.5 -->
      <g transform="translate(138.424175 311.044779) scale(0.08 -0.08)">
       <use xlink:href="#ArialMT-33"/>
       <use xlink:href="#ArialMT-2e" transform="translate(55.615234 0)"/>
       <use xlink:href="#ArialMT-35" transform="translate(83.398438 0)"/>
      </g>
     </g>
    </g>
    <g id="xtick_41">
     <g id="line2d_53">
      <g>
       <use xlink:href="#mcb447051e7" x="176.438833" y="298.318529" style="stroke: #000000; stroke-width: 0.8"/>
      </g>
     </g>
     <g id="text_35">
      <!-- 4.0 -->
      <g transform="translate(170.878833 311.044779) scale(0.08 -0.08)">
       <use xlink:href="#ArialMT-34"/>
       <use xlink:href="#ArialMT-2e" transform="translate(55.615234 0)"/>
       <use xlink:href="#ArialMT-30" transform="translate(83.398438 0)"/>
      </g>
     </g>
    </g>
    <g id="xtick_42">
     <g id="line2d_54">
      <g>
       <use xlink:href="#mcb447051e7" x="208.893492" y="298.318529" style="stroke: #000000; stroke-width: 0.8"/>
      </g>
     </g>
     <g id="text_36">
      <!-- 4.5 -->
      <g transform="translate(203.333492 311.044779) scale(0.08 -0.08)">
       <use xlink:href="#ArialMT-34"/>
       <use xlink:href="#ArialMT-2e" transform="translate(55.615234 0)"/>
       <use xlink:href="#ArialMT-35" transform="translate(83.398438 0)"/>
      </g>
     </g>
    </g>
    <g id="xtick_43">
     <g id="line2d_55">
      <g>
       <use xlink:href="#mcb447051e7" x="241.348151" y="298.318529" style="stroke: #000000; stroke-width: 0.8"/>
      </g>
     </g>
     <g id="text_37">
      <!-- 5.0 -->
      <g transform="translate(235.788151 311.044779) scale(0.08 -0.08)">
       <use xlink:href="#ArialMT-35"/>
       <use xlink:href="#ArialMT-2e" transform="translate(55.615234 0)"/>
       <use xlink:href="#ArialMT-30" transform="translate(83.398438 0)"/>
      </g>
     </g>
    </g>
    <g id="text_38">
     <!-- ground truth $T$ -->
     <g transform="translate(112.684175 323.834779) scale(0.1 -0.1)">
      <defs>
       <path id="ArialMT-75" d="M 2597 0 
L 2597 488 
Q 2209 -75 1544 -75 
Q 1250 -75 995 37 
Q 741 150 617 320 
Q 494 491 444 738 
Q 409 903 409 1263 
L 409 3319 
L 972 3319 
L 972 1478 
Q 972 1038 1006 884 
Q 1059 663 1231 536 
Q 1403 409 1656 409 
Q 1909 409 2131 539 
Q 2353 669 2445 892 
Q 2538 1116 2538 1541 
L 2538 3319 
L 3100 3319 
L 3100 0 
L 2597 0 
z
" transform="scale(0.015625)"/>
      </defs>
      <use xlink:href="#ArialMT-67" transform="translate(0 0.421875)"/>
      <use xlink:href="#ArialMT-72" transform="translate(55.615234 0.421875)"/>
      <use xlink:href="#ArialMT-6f" transform="translate(88.916016 0.421875)"/>
      <use xlink:href="#ArialMT-75" transform="translate(144.53125 0.421875)"/>
      <use xlink:href="#ArialMT-6e" transform="translate(200.146484 0.421875)"/>
      <use xlink:href="#ArialMT-64" transform="translate(255.761719 0.421875)"/>
      <use xlink:href="#ArialMT-20" transform="translate(311.376953 0.421875)"/>
      <use xlink:href="#ArialMT-74" transform="translate(339.160156 0.421875)"/>
      <use xlink:href="#ArialMT-72" transform="translate(366.943359 0.421875)"/>
      <use xlink:href="#ArialMT-75" transform="translate(400.244141 0.421875)"/>
      <use xlink:href="#ArialMT-74" transform="translate(455.859375 0.421875)"/>
      <use xlink:href="#ArialMT-68" transform="translate(483.642578 0.421875)"/>
      <use xlink:href="#ArialMT-20" transform="translate(539.257812 0.421875)"/>
      <use xlink:href="#Cmmi10-54" transform="translate(567.041016 0.421875)"/>
     </g>
    </g>
   </g>
   <g id="matplotlib.axis_10">
    <g id="ytick_13">
     <g id="line2d_56">
      <g>
       <use xlink:href="#mf30da48819" x="36.883801" y="270.095972" style="stroke: #000000; stroke-width: 0.8"/>
      </g>
     </g>
     <g id="text_39">
      <!-- 5 -->
      <g transform="translate(25.435051 272.959097) scale(0.08 -0.08)">
       <use xlink:href="#ArialMT-35"/>
      </g>
     </g>
    </g>
    <g id="ytick_14">
     <g id="line2d_57">
      <g>
       <use xlink:href="#mf30da48819" x="36.883801" y="235.918531" style="stroke: #000000; stroke-width: 0.8"/>
      </g>
     </g>
     <g id="text_40">
      <!-- 10 -->
      <g transform="translate(20.986301 238.781656) scale(0.08 -0.08)">
       <use xlink:href="#ArialMT-31"/>
       <use xlink:href="#ArialMT-30" transform="translate(55.615234 0)"/>
      </g>
     </g>
    </g>
    <g id="text_41">
     <!-- a.u. -->
     <g transform="translate(14.998801 266.954478) rotate(-90) scale(0.1 -0.1)">
      <defs>
       <path id="ArialMT-61" d="M 2588 409 
Q 2275 144 1986 34 
Q 1697 -75 1366 -75 
Q 819 -75 525 192 
Q 231 459 231 875 
Q 231 1119 342 1320 
Q 453 1522 633 1644 
Q 813 1766 1038 1828 
Q 1203 1872 1538 1913 
Q 2219 1994 2541 2106 
Q 2544 2222 2544 2253 
Q 2544 2597 2384 2738 
Q 2169 2928 1744 2928 
Q 1347 2928 1158 2789 
Q 969 2650 878 2297 
L 328 2372 
Q 403 2725 575 2942 
Q 747 3159 1072 3276 
Q 1397 3394 1825 3394 
Q 2250 3394 2515 3294 
Q 2781 3194 2906 3042 
Q 3031 2891 3081 2659 
Q 3109 2516 3109 2141 
L 3109 1391 
Q 3109 606 3145 398 
Q 3181 191 3288 0 
L 2700 0 
Q 2613 175 2588 409 
z
M 2541 1666 
Q 2234 1541 1622 1453 
Q 1275 1403 1131 1340 
Q 988 1278 909 1158 
Q 831 1038 831 891 
Q 831 666 1001 516 
Q 1172 366 1500 366 
Q 1825 366 2078 508 
Q 2331 650 2450 897 
Q 2541 1088 2541 1459 
L 2541 1666 
z
" transform="scale(0.015625)"/>
      </defs>
      <use xlink:href="#ArialMT-61"/>
      <use xlink:href="#ArialMT-2e" transform="translate(55.615234 0)"/>
      <use xlink:href="#ArialMT-75" transform="translate(83.398438 0)"/>
      <use xlink:href="#ArialMT-2e" transform="translate(139.013672 0)"/>
     </g>
    </g>
   </g>
   <g id="line2d_58">
    <defs>
     <path id="m6a70810940" d="M 0 1.25 
C 0.331504 1.25 0.649475 1.118292 0.883883 0.883883 
C 1.118292 0.649475 1.25 0.331504 1.25 0 
C 1.25 -0.331504 1.118292 -0.649475 0.883883 -0.883883 
C 0.649475 -1.118292 0.331504 -1.25 0 -1.25 
C -0.331504 -1.25 -0.649475 -1.118292 -0.883883 -0.883883 
C -1.118292 -0.649475 -1.25 -0.331504 -1.25 0 
C -1.25 0.331504 -1.118292 0.649475 -0.883883 0.883883 
C -0.649475 1.118292 -0.331504 1.25 0 1.25 
z
" style="stroke: #000000; stroke-width: 0.6"/>
    </defs>
    <g clip-path="url(#p752c785609)">
     <use xlink:href="#m6a70810940" x="46.620199" y="272.655123" style="fill: #ffffff; stroke: #000000; stroke-width: 0.6"/>
     <use xlink:href="#m6a70810940" x="49.865664" y="273.511886" style="fill: #ffffff; stroke: #000000; stroke-width: 0.6"/>
     <use xlink:href="#m6a70810940" x="53.11113" y="267.119978" style="fill: #ffffff; stroke: #000000; stroke-width: 0.6"/>
     <use xlink:href="#m6a70810940" x="56.356596" y="262.410399" style="fill: #ffffff; stroke: #000000; stroke-width: 0.6"/>
     <use xlink:href="#m6a70810940" x="59.602062" y="259.479346" style="fill: #ffffff; stroke: #000000; stroke-width: 0.6"/>
     <use xlink:href="#m6a70810940" x="62.847528" y="251.374112" style="fill: #ffffff; stroke: #000000; stroke-width: 0.6"/>
     <use xlink:href="#m6a70810940" x="66.092994" y="249.427154" style="fill: #ffffff; stroke: #000000; stroke-width: 0.6"/>
     <use xlink:href="#m6a70810940" x="69.33846" y="243.061957" style="fill: #ffffff; stroke: #000000; stroke-width: 0.6"/>
     <use xlink:href="#m6a70810940" x="72.583926" y="245.014539" style="fill: #ffffff; stroke: #000000; stroke-width: 0.6"/>
     <use xlink:href="#m6a70810940" x="75.829391" y="237.436964" style="fill: #ffffff; stroke: #000000; stroke-width: 0.6"/>
     <use xlink:href="#m6a70810940" x="79.074857" y="237.927142" style="fill: #ffffff; stroke: #000000; stroke-width: 0.6"/>
     <use xlink:href="#m6a70810940" x="82.320323" y="235.198194" style="fill: #ffffff; stroke: #000000; stroke-width: 0.6"/>
     <use xlink:href="#m6a70810940" x="85.565789" y="239.671899" style="fill: #ffffff; stroke: #000000; stroke-width: 0.6"/>
     <use xlink:href="#m6a70810940" x="88.811255" y="238.482728" style="fill: #ffffff; stroke: #000000; stroke-width: 0.6"/>
     <use xlink:href="#m6a70810940" x="92.056721" y="238.896866" style="fill: #ffffff; stroke: #000000; stroke-width: 0.6"/>
     <use xlink:href="#m6a70810940" x="95.302187" y="240.902714" style="fill: #ffffff; stroke: #000000; stroke-width: 0.6"/>
     <use xlink:href="#m6a70810940" x="98.547652" y="244.523749" style="fill: #ffffff; stroke: #000000; stroke-width: 0.6"/>
     <use xlink:href="#m6a70810940" x="101.793118" y="242.292009" style="fill: #ffffff; stroke: #000000; stroke-width: 0.6"/>
     <use xlink:href="#m6a70810940" x="105.038584" y="243.959573" style="fill: #ffffff; stroke: #000000; stroke-width: 0.6"/>
     <use xlink:href="#m6a70810940" x="108.28405" y="243.328141" style="fill: #ffffff; stroke: #000000; stroke-width: 0.6"/>
     <use xlink:href="#m6a70810940" x="111.529516" y="247.172876" style="fill: #ffffff; stroke: #000000; stroke-width: 0.6"/>
     <use xlink:href="#m6a70810940" x="114.774982" y="249.057425" style="fill: #ffffff; stroke: #000000; stroke-width: 0.6"/>
     <use xlink:href="#m6a70810940" x="118.020448" y="248.58224" style="fill: #ffffff; stroke: #000000; stroke-width: 0.6"/>
     <use xlink:href="#m6a70810940" x="121.265914" y="252.496948" style="fill: #ffffff; stroke: #000000; stroke-width: 0.6"/>
     <use xlink:href="#m6a70810940" x="124.511379" y="255.085571" style="fill: #ffffff; stroke: #000000; stroke-width: 0.6"/>
     <use xlink:href="#m6a70810940" x="137.493243" y="259.029754" style="fill: #ffffff; stroke: #000000; stroke-width: 0.6"/>
     <use xlink:href="#m6a70810940" x="150.475106" y="267.866359" style="fill: #ffffff; stroke: #000000; stroke-width: 0.6"/>
     <use xlink:href="#m6a70810940" x="163.45697" y="271.024361" style="fill: #ffffff; stroke: #000000; stroke-width: 0.6"/>
     <use xlink:href="#m6a70810940" x="176.438833" y="275.184092" style="fill: #ffffff; stroke: #000000; stroke-width: 0.6"/>
     <use xlink:href="#m6a70810940" x="189.420697" y="278.396194" style="fill: #ffffff; stroke: #000000; stroke-width: 0.6"/>
     <use xlink:href="#m6a70810940" x="202.40256" y="279.490818" style="fill: #ffffff; stroke: #000000; stroke-width: 0.6"/>
     <use xlink:href="#m6a70810940" x="215.384424" y="281.08543" style="fill: #ffffff; stroke: #000000; stroke-width: 0.6"/>
     <use xlink:href="#m6a70810940" x="228.366287" y="283.569508" style="fill: #ffffff; stroke: #000000; stroke-width: 0.6"/>
     <use xlink:href="#m6a70810940" x="241.348151" y="284.816907" style="fill: #ffffff; stroke: #000000; stroke-width: 0.6"/>
    </g>
   </g>
   <g id="line2d_59">
    <path d="M 46.620199 260.619721 
L 49.865664 262.741227 
L 53.11113 253.453592 
L 56.356596 248.024773 
L 59.602062 246.073679 
L 62.847528 235.185468 
L 66.092994 234.229511 
L 69.33846 227.541663 
L 72.583926 229.18244 
L 75.829391 224.067216 
L 79.074857 223.864711 
L 82.320323 222.521676 
L 85.565789 227.785349 
L 88.811255 226.989276 
L 92.056721 229.416215 
L 95.302187 231.552325 
L 98.547652 236.757885 
L 101.793118 236.546888 
L 105.038584 238.529701 
L 108.28405 238.684086 
L 111.529516 243.1237 
L 114.774982 246.03644 
L 118.020448 246.737634 
L 121.265914 250.747701 
L 124.511379 254.524567 
L 137.493243 260.554602 
L 150.475106 270.812465 
L 163.45697 276.303883 
L 176.438833 281.176032 
L 189.420697 285.236044 
L 202.40256 287.249227 
L 215.384424 289.164261 
L 228.366287 291.976637 
L 241.348151 294.709155 
" clip-path="url(#p752c785609)" style="fill: none"/>
    <defs>
     <path id="m2a63a9c9fd" d="M 0 1.25 
C 0.331504 1.25 0.649475 1.118292 0.883883 0.883883 
C 1.118292 0.649475 1.25 0.331504 1.25 0 
C 1.25 -0.331504 1.118292 -0.649475 0.883883 -0.883883 
C 0.649475 -1.118292 0.331504 -1.25 0 -1.25 
C -0.331504 -1.25 -0.649475 -1.118292 -0.883883 -0.883883 
C -1.118292 -0.649475 -1.25 -0.331504 -1.25 0 
C -1.25 0.331504 -1.118292 0.649475 -0.883883 0.883883 
C -0.649475 1.118292 -0.331504 1.25 0 1.25 
z
" style="stroke: #000000; stroke-width: 0.6"/>
    </defs>
    <g clip-path="url(#p752c785609)">
     <use xlink:href="#m2a63a9c9fd" x="46.620199" y="260.619721" style="stroke: #000000; stroke-width: 0.6"/>
     <use xlink:href="#m2a63a9c9fd" x="49.865664" y="262.741227" style="stroke: #000000; stroke-width: 0.6"/>
     <use xlink:href="#m2a63a9c9fd" x="53.11113" y="253.453592" style="stroke: #000000; stroke-width: 0.6"/>
     <use xlink:href="#m2a63a9c9fd" x="56.356596" y="248.024773" style="stroke: #000000; stroke-width: 0.6"/>
     <use xlink:href="#m2a63a9c9fd" x="59.602062" y="246.073679" style="stroke: #000000; stroke-width: 0.6"/>
     <use xlink:href="#m2a63a9c9fd" x="62.847528" y="235.185468" style="stroke: #000000; stroke-width: 0.6"/>
     <use xlink:href="#m2a63a9c9fd" x="66.092994" y="234.229511" style="stroke: #000000; stroke-width: 0.6"/>
     <use xlink:href="#m2a63a9c9fd" x="69.33846" y="227.541663" style="stroke: #000000; stroke-width: 0.6"/>
     <use xlink:href="#m2a63a9c9fd" x="72.583926" y="229.18244" style="stroke: #000000; stroke-width: 0.6"/>
     <use xlink:href="#m2a63a9c9fd" x="75.829391" y="224.067216" style="stroke: #000000; stroke-width: 0.6"/>
     <use xlink:href="#m2a63a9c9fd" x="79.074857" y="223.864711" style="stroke: #000000; stroke-width: 0.6"/>
     <use xlink:href="#m2a63a9c9fd" x="82.320323" y="222.521676" style="stroke: #000000; stroke-width: 0.6"/>
     <use xlink:href="#m2a63a9c9fd" x="85.565789" y="227.785349" style="stroke: #000000; stroke-width: 0.6"/>
     <use xlink:href="#m2a63a9c9fd" x="88.811255" y="226.989276" style="stroke: #000000; stroke-width: 0.6"/>
     <use xlink:href="#m2a63a9c9fd" x="92.056721" y="229.416215" style="stroke: #000000; stroke-width: 0.6"/>
     <use xlink:href="#m2a63a9c9fd" x="95.302187" y="231.552325" style="stroke: #000000; stroke-width: 0.6"/>
     <use xlink:href="#m2a63a9c9fd" x="98.547652" y="236.757885" style="stroke: #000000; stroke-width: 0.6"/>
     <use xlink:href="#m2a63a9c9fd" x="101.793118" y="236.546888" style="stroke: #000000; stroke-width: 0.6"/>
     <use xlink:href="#m2a63a9c9fd" x="105.038584" y="238.529701" style="stroke: #000000; stroke-width: 0.6"/>
     <use xlink:href="#m2a63a9c9fd" x="108.28405" y="238.684086" style="stroke: #000000; stroke-width: 0.6"/>
     <use xlink:href="#m2a63a9c9fd" x="111.529516" y="243.1237" style="stroke: #000000; stroke-width: 0.6"/>
     <use xlink:href="#m2a63a9c9fd" x="114.774982" y="246.03644" style="stroke: #000000; stroke-width: 0.6"/>
     <use xlink:href="#m2a63a9c9fd" x="118.020448" y="246.737634" style="stroke: #000000; stroke-width: 0.6"/>
     <use xlink:href="#m2a63a9c9fd" x="121.265914" y="250.747701" style="stroke: #000000; stroke-width: 0.6"/>
     <use xlink:href="#m2a63a9c9fd" x="124.511379" y="254.524567" style="stroke: #000000; stroke-width: 0.6"/>
     <use xlink:href="#m2a63a9c9fd" x="137.493243" y="260.554602" style="stroke: #000000; stroke-width: 0.6"/>
     <use xlink:href="#m2a63a9c9fd" x="150.475106" y="270.812465" style="stroke: #000000; stroke-width: 0.6"/>
     <use xlink:href="#m2a63a9c9fd" x="163.45697" y="276.303883" style="stroke: #000000; stroke-width: 0.6"/>
     <use xlink:href="#m2a63a9c9fd" x="176.438833" y="281.176032" style="stroke: #000000; stroke-width: 0.6"/>
     <use xlink:href="#m2a63a9c9fd" x="189.420697" y="285.236044" style="stroke: #000000; stroke-width: 0.6"/>
     <use xlink:href="#m2a63a9c9fd" x="202.40256" y="287.249227" style="stroke: #000000; stroke-width: 0.6"/>
     <use xlink:href="#m2a63a9c9fd" x="215.384424" y="289.164261" style="stroke: #000000; stroke-width: 0.6"/>
     <use xlink:href="#m2a63a9c9fd" x="228.366287" y="291.976637" style="stroke: #000000; stroke-width: 0.6"/>
     <use xlink:href="#m2a63a9c9fd" x="241.348151" y="294.709155" style="stroke: #000000; stroke-width: 0.6"/>
    </g>
   </g>
   <g id="LineCollection_1">
    <path d="M 124.511379 304.273414 
L 124.511379 208.576578 
" clip-path="url(#p752c785609)" style="fill: none; stroke: #000000; stroke-opacity: 0.2"/>
   </g>
   <g id="patch_59">
    <path d="M 36.883801 298.318529 
L 36.883801 218.912302 
" style="fill: none; stroke: #000000; stroke-width: 0.8; stroke-linejoin: miter; stroke-linecap: square"/>
   </g>
   <g id="patch_60">
    <path d="M 251.084548 298.318529 
L 251.084548 218.912302 
" style="fill: none; stroke: #000000; stroke-width: 0.8; stroke-linejoin: miter; stroke-linecap: square"/>
   </g>
   <g id="patch_61">
    <path d="M 36.883801 298.318529 
L 251.084548 298.318529 
" style="fill: none; stroke: #000000; stroke-width: 0.8; stroke-linejoin: miter; stroke-linecap: square"/>
   </g>
   <g id="patch_62">
    <path d="M 36.883801 218.912302 
L 251.084548 218.912302 
" style="fill: none; stroke: #000000; stroke-width: 0.8; stroke-linejoin: miter; stroke-linecap: square"/>
   </g>
   <g id="legend_1">
    <g id="patch_63">
     <path d="M 135.644548 251.552302 
L 245.484548 251.552302 
Q 247.084548 251.552302 247.084548 249.952302 
L 247.084548 224.512302 
Q 247.084548 222.912302 245.484548 222.912302 
L 135.644548 222.912302 
Q 134.044548 222.912302 134.044548 224.512302 
L 134.044548 249.952302 
Q 134.044548 251.552302 135.644548 251.552302 
z
" style="fill: #ffffff; opacity: 0.8; stroke: #cccccc; stroke-linejoin: miter"/>
    </g>
    <g id="line2d_60">
     <path d="M 137.244548 231.152302 
L 145.244548 231.152302 
L 153.244548 231.152302 
" style="fill: none"/>
     <g>
      <use xlink:href="#m2a63a9c9fd" x="145.244548" y="231.152302" style="stroke: #000000; stroke-width: 0.6"/>
     </g>
    </g>
    <g id="text_42">
     <!-- $\kappa(\tau=1) =\text{Cov} (\frac{E_\text{true}}{T}, \hat E)_{\hat{q}_{\tau=1} }$ -->
     <g transform="translate(153.244548 233.952302) scale(0.08 -0.08)">
      <defs>
       <path id="Cmmi10-2219" d="M 341 109 
Q 341 147 347 166 
L 959 2625 
Q 984 2716 1059 2772 
Q 1134 2828 1228 2828 
Q 1309 2828 1365 2779 
Q 1422 2731 1422 2650 
Q 1422 2631 1420 2620 
Q 1419 2609 1416 2597 
L 1184 1672 
Q 1441 1756 1866 2111 
Q 2291 2466 2508 2612 
Q 2725 2759 3041 2759 
Q 3144 2759 3214 2695 
Q 3284 2631 3284 2522 
Q 3284 2372 3176 2267 
Q 3069 2163 2919 2163 
Q 2816 2163 2745 2230 
Q 2675 2297 2675 2400 
Q 2675 2472 2700 2522 
Q 2547 2459 2386 2346 
Q 2225 2234 2094 2120 
Q 1963 2006 1778 1853 
Q 1594 1700 1447 1619 
Q 1709 1619 1984 1562 
Q 2259 1506 2461 1356 
Q 2663 1206 2663 947 
Q 2663 844 2638 769 
Q 2578 513 2578 384 
Q 2578 97 2778 97 
Q 3006 97 3128 350 
Q 3250 603 3328 941 
Q 3341 978 3378 978 
L 3456 978 
Q 3481 978 3497 961 
Q 3513 944 3513 922 
Q 3513 916 3506 903 
Q 3272 -72 2766 -72 
Q 2584 -72 2445 12 
Q 2306 97 2231 242 
Q 2156 388 2156 569 
Q 2156 684 2181 781 
Q 2203 869 2203 928 
Q 2203 1134 2020 1253 
Q 1838 1372 1589 1415 
Q 1341 1459 1125 1459 
L 800 141 
Q 778 53 701 -9 
Q 625 -72 531 -72 
Q 453 -72 397 -22 
Q 341 28 341 109 
z
" transform="scale(0.015625)"/>
       <path id="Cmr10-43" d="M 1459 684 
Q 1678 406 2006 245 
Q 2334 84 2688 84 
Q 2984 84 3237 201 
Q 3491 319 3680 528 
Q 3869 738 3970 1003 
Q 4072 1269 4072 1563 
Q 4072 1613 4128 1613 
L 4206 1613 
Q 4256 1613 4256 1550 
Q 4256 1216 4128 905 
Q 4000 594 3765 358 
Q 3531 122 3226 -9 
Q 2922 -141 2591 -141 
Q 2131 -141 1720 45 
Q 1309 231 1004 554 
Q 700 878 529 1303 
Q 359 1728 359 2188 
Q 359 2647 529 3072 
Q 700 3497 1004 3822 
Q 1309 4147 1720 4330 
Q 2131 4513 2591 4513 
Q 2919 4513 3219 4370 
Q 3519 4228 3744 3969 
L 4116 4494 
Q 4153 4513 4159 4513 
L 4206 4513 
Q 4225 4513 4240 4497 
Q 4256 4481 4256 4459 
L 4256 2731 
Q 4256 2675 4206 2675 
L 4091 2675 
Q 4031 2675 4031 2731 
Q 4031 2916 3957 3144 
Q 3884 3372 3770 3576 
Q 3656 3781 3506 3938 
Q 3147 4288 2681 4288 
Q 2328 4288 2004 4128 
Q 1681 3969 1459 3688 
Q 1225 3388 1134 3005 
Q 1044 2622 1044 2188 
Q 1044 1753 1134 1368 
Q 1225 984 1459 684 
z
" transform="scale(0.015625)"/>
       <path id="Cmr10-6f" d="M 1600 -72 
Q 1216 -72 887 123 
Q 559 319 368 647 
Q 178 975 178 1363 
Q 178 1656 283 1928 
Q 388 2200 583 2414 
Q 778 2628 1037 2748 
Q 1297 2869 1600 2869 
Q 1994 2869 2317 2661 
Q 2641 2453 2828 2104 
Q 3016 1756 3016 1363 
Q 3016 978 2825 648 
Q 2634 319 2307 123 
Q 1981 -72 1600 -72 
z
M 1600 116 
Q 2113 116 2284 487 
Q 2456 859 2456 1434 
Q 2456 1756 2422 1967 
Q 2388 2178 2272 2350 
Q 2200 2456 2089 2536 
Q 1978 2616 1854 2658 
Q 1731 2700 1600 2700 
Q 1400 2700 1220 2609 
Q 1041 2519 922 2350 
Q 803 2169 770 1951 
Q 738 1734 738 1434 
Q 738 1075 800 789 
Q 863 503 1052 309 
Q 1241 116 1600 116 
z
" transform="scale(0.015625)"/>
       <path id="Cmr10-76" d="M 1563 0 
L 628 2350 
Q 569 2469 445 2501 
Q 322 2534 122 2534 
L 122 2759 
L 1466 2759 
L 1466 2534 
Q 1106 2534 1106 2381 
Q 1106 2356 1113 2344 
L 1831 538 
L 2478 2169 
Q 2497 2219 2497 2272 
Q 2497 2394 2405 2464 
Q 2313 2534 2188 2534 
L 2188 2759 
L 3250 2759 
L 3250 2534 
Q 3053 2534 2904 2443 
Q 2756 2353 2675 2175 
L 1813 0 
Q 1788 -72 1709 -72 
L 1663 -72 
Q 1584 -72 1563 0 
z
" transform="scale(0.015625)"/>
       <path id="Cmmi10-45" d="M 300 0 
Q 238 0 238 84 
Q 241 100 250 139 
Q 259 178 276 201 
Q 294 225 319 225 
Q 709 225 863 269 
Q 947 297 984 441 
L 1863 3956 
Q 1875 4019 1875 4044 
Q 1875 4113 1797 4122 
Q 1678 4147 1338 4147 
Q 1275 4147 1275 4231 
Q 1278 4247 1287 4286 
Q 1297 4325 1314 4348 
Q 1331 4372 1356 4372 
L 4825 4372 
Q 4891 4372 4891 4288 
L 4738 2963 
Q 4738 2947 4714 2926 
Q 4691 2906 4672 2906 
L 4616 2906 
Q 4550 2906 4550 2988 
Q 4588 3300 4588 3450 
Q 4588 3706 4500 3848 
Q 4413 3991 4267 4053 
Q 4122 4116 3945 4131 
Q 3769 4147 3481 4147 
L 2753 4147 
Q 2578 4147 2522 4117 
Q 2466 4088 2419 3928 
L 2034 2381 
L 2534 2381 
Q 2859 2381 3025 2426 
Q 3191 2472 3287 2615 
Q 3384 2759 3463 3072 
Q 3469 3094 3486 3111 
Q 3503 3128 3525 3128 
L 3584 3128 
Q 3647 3128 3647 3047 
L 3250 1466 
Q 3238 1409 3188 1409 
L 3128 1409 
Q 3066 1409 3066 1491 
Q 3128 1747 3128 1869 
Q 3128 2056 2959 2106 
Q 2791 2156 2509 2156 
L 1978 2156 
L 1544 416 
Q 1516 338 1516 275 
Q 1516 225 1734 225 
L 2509 225 
Q 2972 225 3259 297 
Q 3547 369 3736 526 
Q 3925 684 4062 928 
Q 4200 1172 4397 1638 
Q 4409 1678 4453 1678 
L 4513 1678 
Q 4538 1678 4556 1656 
Q 4575 1634 4575 1606 
Q 4575 1594 4569 1581 
L 3909 38 
Q 3897 0 3859 0 
L 300 0 
z
" transform="scale(0.015625)"/>
       <path id="Cmr10-74" d="M 653 769 
L 653 2534 
L 122 2534 
L 122 2700 
Q 541 2700 737 3090 
Q 934 3481 934 3938 
L 1119 3938 
L 1119 2759 
L 2022 2759 
L 2022 2534 
L 1119 2534 
L 1119 781 
Q 1119 516 1208 316 
Q 1297 116 1528 116 
Q 1747 116 1844 327 
Q 1941 538 1941 781 
L 1941 1159 
L 2125 1159 
L 2125 769 
Q 2125 569 2051 373 
Q 1978 178 1834 53 
Q 1691 -72 1484 -72 
Q 1100 -72 876 158 
Q 653 388 653 769 
z
" transform="scale(0.015625)"/>
       <path id="Cmr10-72" d="M 166 0 
L 166 225 
Q 384 225 525 259 
Q 666 294 666 428 
L 666 2175 
Q 666 2347 614 2423 
Q 563 2500 466 2517 
Q 369 2534 166 2534 
L 166 2759 
L 1081 2828 
L 1081 2203 
Q 1184 2481 1375 2654 
Q 1566 2828 1838 2828 
Q 2028 2828 2178 2715 
Q 2328 2603 2328 2419 
Q 2328 2303 2245 2217 
Q 2163 2131 2041 2131 
Q 1922 2131 1837 2215 
Q 1753 2300 1753 2419 
Q 1753 2591 1875 2663 
L 1838 2663 
Q 1578 2663 1414 2475 
Q 1250 2288 1181 2009 
Q 1113 1731 1113 1478 
L 1113 428 
Q 1113 225 1734 225 
L 1734 0 
L 166 0 
z
" transform="scale(0.015625)"/>
       <path id="Cmr10-75" d="M 691 763 
L 691 2175 
Q 691 2347 639 2423 
Q 588 2500 491 2517 
Q 394 2534 191 2534 
L 191 2759 
L 1159 2828 
L 1159 763 
Q 1159 513 1195 373 
Q 1231 234 1348 165 
Q 1466 97 1722 97 
Q 2066 97 2269 384 
Q 2472 672 2472 1038 
L 2472 2175 
Q 2472 2347 2419 2423 
Q 2366 2500 2270 2517 
Q 2175 2534 1972 2534 
L 1972 2759 
L 2938 2828 
L 2938 581 
Q 2938 413 2989 336 
Q 3041 259 3137 242 
Q 3234 225 3438 225 
L 3438 0 
L 2491 -72 
L 2491 469 
Q 2372 228 2159 78 
Q 1947 -72 1691 -72 
Q 1231 -72 961 123 
Q 691 319 691 763 
z
" transform="scale(0.015625)"/>
       <path id="Cmr10-65" d="M 1594 -72 
Q 1203 -72 876 133 
Q 550 338 364 680 
Q 178 1022 178 1403 
Q 178 1778 348 2115 
Q 519 2453 823 2661 
Q 1128 2869 1503 2869 
Q 1797 2869 2014 2770 
Q 2231 2672 2372 2497 
Q 2513 2322 2584 2084 
Q 2656 1847 2656 1563 
Q 2656 1478 2591 1478 
L 738 1478 
L 738 1409 
Q 738 878 952 497 
Q 1166 116 1650 116 
Q 1847 116 2014 203 
Q 2181 291 2304 447 
Q 2428 603 2472 781 
Q 2478 803 2495 820 
Q 2513 838 2534 838 
L 2591 838 
Q 2656 838 2656 756 
Q 2566 394 2266 161 
Q 1966 -72 1594 -72 
z
M 744 1638 
L 2203 1638 
Q 2203 1878 2136 2125 
Q 2069 2372 1912 2536 
Q 1756 2700 1503 2700 
Q 1141 2700 942 2361 
Q 744 2022 744 1638 
z
" transform="scale(0.015625)"/>
       <path id="Cmmi10-3b" d="M 634 -1153 
Q 634 -1125 659 -1100 
Q 891 -878 1019 -587 
Q 1147 -297 1147 25 
L 1147 103 
Q 1044 0 891 0 
Q 744 0 641 103 
Q 538 206 538 353 
Q 538 503 641 603 
Q 744 703 891 703 
Q 1119 703 1216 492 
Q 1313 281 1313 25 
Q 1313 -331 1170 -651 
Q 1028 -972 769 -1228 
Q 744 -1241 728 -1241 
Q 697 -1241 665 -1212 
Q 634 -1184 634 -1153 
z
" transform="scale(0.015625)"/>
      </defs>
      <use xlink:href="#Cmmi10-2219" transform="translate(0 0.225625)"/>
      <use xlink:href="#Cmr10-28" transform="translate(57.617188 0.225625)"/>
      <use xlink:href="#Cmmi10-bf" transform="translate(96.435547 0.225625)"/>
      <use xlink:href="#Cmr10-3d" transform="translate(157.695312 0.225625)"/>
      <use xlink:href="#Cmr10-31" transform="translate(252.939453 0.225625)"/>
      <use xlink:href="#Cmr10-29" transform="translate(302.939453 0.225625)"/>
      <use xlink:href="#Cmr10-3d" transform="translate(359.316406 0.225625)"/>
      <use xlink:href="#Cmr10-43" transform="translate(454.560547 0.225625)"/>
      <use xlink:href="#Cmr10-6f" transform="translate(526.777344 0.225625)"/>
      <use xlink:href="#Cmr10-76" transform="translate(576.777344 0.225625)"/>
      <use xlink:href="#Cmr10-28" transform="translate(629.462891 0.225625)"/>
      <use xlink:href="#Cmmi10-45" transform="translate(668.28125 50.18125) scale(0.7)"/>
      <use xlink:href="#Cmr10-74" transform="translate(719.926758 38.276875) scale(0.49)"/>
      <use xlink:href="#Cmr10-72" transform="translate(738.947754 38.276875) scale(0.49)"/>
      <use xlink:href="#Cmr10-75" transform="translate(758.112305 38.276875) scale(0.49)"/>
      <use xlink:href="#Cmr10-65" transform="translate(785.315918 38.276875) scale(0.49)"/>
      <use xlink:href="#Cmmi10-54" transform="translate(719.28125 -41.343125) scale(0.7)"/>
      <use xlink:href="#Cmmi10-3b" transform="translate(824.028594 0.225625)"/>
      <use xlink:href="#Cmr10-5e" transform="translate(889.917266 27.225625)"/>
      <use xlink:href="#Cmmi10-45" transform="translate(869.272734 0.225625)"/>
      <use xlink:href="#Cmr10-29" transform="translate(943.052031 0.225625)"/>
      <use xlink:href="#Cmr10-5e" transform="translate(988.073545 -14.77125) scale(0.7)"/>
      <use xlink:href="#Cmmi10-71" transform="translate(986.334531 -16.780625) scale(0.7)"/>
      <use xlink:href="#Cmmi10-bf" transform="translate(1020.665484 -28.685) scale(0.49)"/>
      <use xlink:href="#Cmr10-3d" transform="translate(1050.68277 -28.685) scale(0.49)"/>
      <use xlink:href="#Cmr10-31" transform="translate(1097.352398 -28.685) scale(0.49)"/>
      <path d="M 668.28125 12.725625 
L 668.28125 18.975625 
L 811.528594 18.975625 
L 811.528594 12.725625 
L 668.28125 12.725625 
z
"/>
     </g>
    </g>
    <g id="line2d_61">
     <g>
      <use xlink:href="#m6a70810940" x="145.244548" y="243.072302" style="fill: #ffffff; stroke: #000000; stroke-width: 0.6"/>
     </g>
    </g>
    <g id="text_43">
     <!-- $C(\tau=1) =\text{Var} (\hat E)_{\hat{q}_{\tau=1} }$ -->
     <g transform="translate(153.244548 245.872302) scale(0.08 -0.08)">
      <defs>
       <path id="Cmmi10-43" d="M 934 1381 
Q 934 997 1082 705 
Q 1231 413 1514 248 
Q 1797 84 2181 84 
Q 2584 84 2957 290 
Q 3331 497 3595 842 
Q 3859 1188 3956 1575 
Q 3969 1613 4006 1613 
L 4084 1613 
Q 4109 1613 4125 1595 
Q 4141 1578 4141 1556 
Q 4141 1550 4134 1538 
Q 4025 1094 3711 705 
Q 3397 316 2959 87 
Q 2522 -141 2059 -141 
Q 1559 -141 1162 84 
Q 766 309 545 709 
Q 325 1109 325 1613 
Q 325 2150 565 2676 
Q 806 3203 1212 3614 
Q 1619 4025 2139 4269 
Q 2659 4513 3194 4513 
Q 3406 4513 3600 4448 
Q 3794 4384 3959 4253 
Q 4125 4122 4231 3950 
L 4738 4500 
Q 4738 4513 4769 4513 
L 4806 4513 
Q 4831 4513 4847 4491 
Q 4863 4469 4863 4447 
L 4428 2719 
Q 4428 2675 4378 2675 
L 4263 2675 
Q 4213 2675 4213 2747 
Q 4238 2888 4238 3084 
Q 4238 3397 4131 3673 
Q 4025 3950 3801 4119 
Q 3578 4288 3256 4288 
Q 2734 4288 2300 4025 
Q 1866 3763 1564 3336 
Q 1263 2909 1098 2389 
Q 934 1869 934 1381 
z
" transform="scale(0.015625)"/>
       <path id="Cmr10-56" d="M 2253 -72 
L 744 3944 
Q 688 4078 528 4112 
Q 369 4147 122 4147 
L 122 4372 
L 1881 4372 
L 1881 4147 
Q 1350 4147 1350 3981 
Q 1353 3972 1354 3964 
Q 1356 3956 1356 3944 
L 2584 678 
L 3744 3769 
Q 3756 3794 3756 3847 
Q 3756 4003 3612 4075 
Q 3469 4147 3291 4147 
L 3291 4372 
L 4672 4372 
L 4672 4147 
Q 4431 4147 4248 4058 
Q 4066 3969 3988 3769 
L 2541 -72 
Q 2522 -141 2438 -141 
L 2356 -141 
Q 2272 -141 2253 -72 
z
" transform="scale(0.015625)"/>
       <path id="Cmr10-61" d="M 256 628 
Q 256 1009 556 1248 
Q 856 1488 1276 1586 
Q 1697 1684 2075 1684 
L 2075 1947 
Q 2075 2131 1994 2304 
Q 1913 2478 1759 2589 
Q 1606 2700 1422 2700 
Q 997 2700 775 2509 
Q 897 2509 976 2417 
Q 1056 2325 1056 2203 
Q 1056 2075 965 1984 
Q 875 1894 750 1894 
Q 622 1894 531 1984 
Q 441 2075 441 2203 
Q 441 2541 747 2705 
Q 1053 2869 1422 2869 
Q 1681 2869 1943 2758 
Q 2206 2647 2373 2440 
Q 2541 2234 2541 1959 
L 2541 519 
Q 2541 394 2594 289 
Q 2647 184 2759 184 
Q 2866 184 2917 290 
Q 2969 397 2969 519 
L 2969 928 
L 3156 928 
L 3156 519 
Q 3156 375 3081 245 
Q 3006 116 2879 39 
Q 2753 -38 2606 -38 
Q 2419 -38 2283 107 
Q 2147 253 2131 453 
Q 2013 213 1781 70 
Q 1550 -72 1288 -72 
Q 1044 -72 808 0 
Q 572 72 414 226 
Q 256 381 256 628 
z
M 775 628 
Q 775 403 940 250 
Q 1106 97 1331 97 
Q 1538 97 1706 200 
Q 1875 303 1975 481 
Q 2075 659 2075 856 
L 2075 1522 
Q 1784 1522 1479 1426 
Q 1175 1331 975 1128 
Q 775 925 775 628 
z
" transform="scale(0.015625)"/>
      </defs>
      <use xlink:href="#Cmmi10-43" transform="translate(0 0.609375)"/>
      <use xlink:href="#Cmr10-28" transform="translate(71.386719 0.609375)"/>
      <use xlink:href="#Cmmi10-bf" transform="translate(110.205078 0.609375)"/>
      <use xlink:href="#Cmr10-3d" transform="translate(171.464844 0.609375)"/>
      <use xlink:href="#Cmr10-31" transform="translate(266.708984 0.609375)"/>
      <use xlink:href="#Cmr10-29" transform="translate(316.708984 0.609375)"/>
      <use xlink:href="#Cmr10-3d" transform="translate(373.085938 0.609375)"/>
      <use xlink:href="#Cmr10-56" transform="translate(468.330078 0.609375)"/>
      <use xlink:href="#Cmr10-61" transform="translate(543.330078 0.609375)"/>
      <use xlink:href="#Cmr10-72" transform="translate(593.330078 0.609375)"/>
      <use xlink:href="#Cmr10-28" transform="translate(632.441406 0.609375)"/>
      <use xlink:href="#Cmr10-5e" transform="translate(691.904297 27.609375)"/>
      <use xlink:href="#Cmmi10-45" transform="translate(671.259766 0.609375)"/>
      <use xlink:href="#Cmr10-29" transform="translate(745.039062 0.609375)"/>
      <use xlink:href="#Cmr10-5e" transform="translate(790.060576 -14.3875) scale(0.7)"/>
      <use xlink:href="#Cmmi10-71" transform="translate(788.321563 -16.396875) scale(0.7)"/>
      <use xlink:href="#Cmmi10-bf" transform="translate(822.652516 -28.30125) scale(0.49)"/>
      <use xlink:href="#Cmr10-3d" transform="translate(852.669801 -28.30125) scale(0.49)"/>
      <use xlink:href="#Cmr10-31" transform="translate(899.33943 -28.30125) scale(0.49)"/>
     </g>
    </g>
   </g>
  </g>
 </g>
 <defs>
  <clipPath id="p0d09d6f145">
   <rect x="52.814063" y="18.92625" width="94.414517" height="77.02544"/>
  </clipPath>
  <clipPath id="p509b8b2eaf">
   <rect x="52.814063" y="103.654234" width="94.414517" height="77.02544"/>
  </clipPath>
  <clipPath id="p8ef5eff788">
   <rect x="156.670031" y="18.92625" width="94.414517" height="77.02544"/>
  </clipPath>
  <clipPath id="p3a469bb12b">
   <rect x="156.670031" y="103.654234" width="94.414517" height="77.02544"/>
  </clipPath>
  <clipPath id="p752c785609">
   <rect x="36.883801" y="218.912302" width="214.200747" height="79.406227"/>
  </clipPath>
 </defs>
</svg>
